<svg version="1.1" xmlns="http://www.w3.org/2000/svg" xmlns:xlink="http://www.w3.org/1999/xlink" width="244.58275" height="221.76312" viewBox="0,0,244.58275,221.76312"><g transform="translate(-117.70761,-72.80938)"><g data-paper-data="{&quot;isPaintingLayer&quot;:true}" fill-rule="nonzero" stroke="#000000" stroke-linejoin="miter" stroke-miterlimit="10" stroke-dasharray="" stroke-dashoffset="0" style="mix-blend-mode: normal"><path d="M241.95859,73.46667c0,0 6.09548,5.2725 7.16667,18.16667c0.89443,10.76643 1.66667,28 1.66667,28c0,0 0.0674,15.5055 -0.01792,24.48822c-0.00447,0.4709 -0.56541,36.92845 -0.56541,36.92845c0,0 -0.94573,23.18212 -1.99483,35.77126c-1.16164,13.93966 -4.85366,46.13783 -4.85366,46.13783h-6.69344c0,0 -3.69202,-32.19817 -4.85366,-46.13783c-1.0491,-12.58914 -1.99483,-35.77126 -1.99483,-35.77126c0,0 -0.56094,-36.45755 -0.56541,-36.92845c-0.08532,-8.98272 -0.01792,-24.48822 -0.01792,-24.48822c0,0 0.77224,-17.23357 1.66667,-28c1.07119,-12.89417 7.16667,-18.16667 7.16667,-18.16667z" fill="#b3b99d" stroke-width="1" stroke-linecap="round"/><g data-paper-data="{&quot;index&quot;:null}" fill="#b3b99d" stroke-width="1" stroke-linecap="round"><path d="M240.37462,277.25l-6.33333,8.66667l-26.83333,-3.33333c0,0 -4.39301,-2.46172 -4.49611,-8.48648c-0.10069,-5.88391 3.16278,-7.84685 3.16278,-7.84685l34.33333,-5.16667z"/><path d="M239.79206,261.08334l34.33333,5.16667c0,0 3.26347,1.96294 3.16278,7.84685c-0.1031,6.02476 -4.49611,8.48648 -4.49611,8.48648l-26.83333,3.33333l-6.33333,-8.66667z" data-paper-data="{&quot;index&quot;:null}"/></g><path d="M239.04342,178.50998c0,0 -2.70562,-0.58083 -4.27378,-1.95015c-1.47048,-1.28403 -2.47706,-4.71301 -2.47706,-4.71301l-0.11688,-21.79271l4.15885,-6.94639l3.67327,-0.01769l-0.01564,-0.00001l3.67327,0.01769l4.15885,6.94639l-0.11688,21.79271c0,0 -1.00658,3.42897 -2.47706,4.71301c-1.56815,1.36933 -4.27378,1.95015 -4.27378,1.95015z" fill="#b8c7cc" stroke-width="1" stroke-linecap="round"/><path d="M235.01046,176.40582v-25.86358l1.40277,-3.33158l-0.08767,-4.03296" fill="none" stroke-width="1" stroke-linecap="round"/><path d="M241.93663,151.59432l-9.20568,0.08767" fill="none" stroke-width="1.5" stroke-linecap="round"/><path d="M232.55561,168.07687h14.88879" fill="none" stroke-width="1" stroke-linecap="round"/><path d="M240.0955,177.98394v-9.81939" fill="none" stroke-width="1" stroke-linecap="round"/><path d="M236.58857,147.21066h5.43574" fill="none" stroke-width="1" stroke-linecap="round"/><path d="M243.67445,143.1777l-0.08767,4.03296l1.40277,3.33158v25.86358" fill="none" stroke-width="1" stroke-linecap="round"/><path d="M247.26906,151.68199l-9.20568,-0.08767" fill="none" stroke-width="1.5" stroke-linecap="round"/><path d="M239.90451,177.98394v-9.81939" fill="none" stroke-width="1" stroke-linecap="round"/><path d="M237.97571,147.21066h5.43573" fill="none" stroke-width="1" stroke-linecap="round"/><path d="M241.20573,269.06001c-0.00202,10.58789 -0.52745,25.00813 -1.19335,25.01249c-0.66592,0.00434 -1.22013,-14.40883 -1.21811,-24.99672c0.00202,-10.58789 1.20776,-10.64829 1.20776,-10.64829c0,0 1.20571,0.04463 1.2037,10.63252z" fill="#b3b99d" stroke-width="1" stroke-linecap="butt"/><path d="M250.83324,120.30054l2.5,1.17105l105.75,9c0,0 2.65429,2.70549 2.70712,10.40942c0.09164,13.36271 -2.95712,16.34058 -2.95712,16.34058c0,0 -101.08909,17.43648 -103.75,18c-2.66091,0.56352 -4.85526,5 -4.85526,5c0,0 0.5388,-25.23557 0.62882,-36.12813c0.07309,-8.84437 -0.02356,-23.79292 -0.02356,-23.79292z" data-paper-data="{&quot;index&quot;:null}" fill="#b3b99d" stroke-width="1" stroke-linecap="round"/><path d="M229.1432,144.09347c0.09002,10.89256 0.62882,36.12813 0.62882,36.12813c0,0 -2.19435,-4.43648 -4.85526,-5c-2.66091,-0.56352 -103.75,-18 -103.75,-18c0,0 -3.04876,-2.97787 -2.95712,-16.34058c0.05283,-7.70393 2.70712,-10.40942 2.70712,-10.40942l105.75,-9l2.5,-1.17105c0,0 -0.09665,14.94855 -0.02356,23.79292z" fill="#b3b99d" stroke-width="1" stroke-linecap="round"/><path d="M242.10714,73.32857c0,0 5.37957,0.56511 7.06573,20.26343c0.70058,8.18445 1.64617,26.63781 1.64617,26.63781l0.05901,20.59472l-21.75901,0.11594l0.05,-20.62971c0,0 0.94559,-18.45336 1.64617,-26.63781c1.68616,-19.69832 7.06573,-20.36343 7.06573,-20.36343z" data-paper-data="{&quot;index&quot;:null}" fill="#edfc1e" stroke-width="1" stroke-linecap="round"/><path d="M246.84772,81.26454l-13.63103,0.03448" fill="none" stroke-width="1" stroke-linecap="round"/><g fill="none" stroke-width="1.5" stroke-linecap="round"><path d="M235.39318,112.59167v-11.475"/><path d="M244.60682,101.11667v11.475"/></g></g></g></svg>