<svg version="1.1" xmlns="http://www.w3.org/2000/svg" xmlns:xlink="http://www.w3.org/1999/xlink" width="730.70268" height="433.00901" viewBox="0,0,730.70268,433.00901"><defs><linearGradient x1="253.21863" y1="-28.76664" x2="253.21863" y2="404.24237" gradientUnits="userSpaceOnUse" id="color-1"><stop offset="0" stop-color="#005786"/><stop offset="1" stop-color="#003043"/></linearGradient><linearGradient x1="141.16465" y1="264.24104" x2="157.6749" y2="264.54074" gradientUnits="userSpaceOnUse" id="color-2"><stop offset="0" stop-color="#e7e7e7"/><stop offset="1" stop-color="#f2f2f2"/></linearGradient><linearGradient x1="136.69659" y1="264.15869" x2="141.39169" y2="264.24391" gradientUnits="userSpaceOnUse" id="color-3"><stop offset="0" stop-color="#efefef"/><stop offset="1" stop-color="#c7c7c7"/></linearGradient><linearGradient x1="147.57387" y1="265.99863" x2="154.90028" y2="266.13163" gradientUnits="userSpaceOnUse" id="color-4"><stop offset="0" stop-color="#e7e7e7"/><stop offset="1" stop-color="#f2f2f2"/></linearGradient><linearGradient x1="147.61167" y1="262.77876" x2="154.9381" y2="262.91175" gradientUnits="userSpaceOnUse" id="color-5"><stop offset="0" stop-color="#e7e7e7"/><stop offset="1" stop-color="#f2f2f2"/></linearGradient><linearGradient x1="155.74519" y1="266.21509" x2="157.66452" y2="266.24992" gradientUnits="userSpaceOnUse" id="color-6"><stop offset="0" stop-color="#e7e7e7"/><stop offset="1" stop-color="#f2f2f2"/></linearGradient><linearGradient x1="155.82757" y1="262.81435" x2="157.74689" y2="262.8492" gradientUnits="userSpaceOnUse" id="color-7"><stop offset="0" stop-color="#e7e7e7"/><stop offset="1" stop-color="#f2f2f2"/></linearGradient><linearGradient x1="140.91994" y1="244.05769" x2="157.43018" y2="244.3574" gradientUnits="userSpaceOnUse" id="color-8"><stop offset="0" stop-color="#e7e7e7"/><stop offset="1" stop-color="#f2f2f2"/></linearGradient><linearGradient x1="136.45183" y1="243.97785" x2="141.14694" y2="244.06308" gradientUnits="userSpaceOnUse" id="color-9"><stop offset="0" stop-color="#efefef"/><stop offset="1" stop-color="#c7c7c7"/></linearGradient><linearGradient x1="147.38872" y1="242.53387" x2="154.71514" y2="242.66686" gradientUnits="userSpaceOnUse" id="color-10"><stop offset="0" stop-color="#e7e7e7"/><stop offset="1" stop-color="#f2f2f2"/></linearGradient><linearGradient x1="147.30964" y1="245.753" x2="154.63607" y2="245.88599" gradientUnits="userSpaceOnUse" id="color-11"><stop offset="0" stop-color="#e7e7e7"/><stop offset="1" stop-color="#f2f2f2"/></linearGradient><linearGradient x1="155.56252" y1="242.61413" x2="157.48184" y2="242.64896" gradientUnits="userSpaceOnUse" id="color-12"><stop offset="0" stop-color="#e7e7e7"/><stop offset="1" stop-color="#f2f2f2"/></linearGradient><linearGradient x1="155.52142" y1="246.01561" x2="157.44073" y2="246.05044" gradientUnits="userSpaceOnUse" id="color-13"><stop offset="0" stop-color="#e7e7e7"/><stop offset="1" stop-color="#f2f2f2"/></linearGradient><radialGradient cx="129.21642" cy="253.60272" r="7.11912" gradientUnits="userSpaceOnUse" id="color-14"><stop offset="0" stop-color="#b7e6ff"/><stop offset="1" stop-color="#6ba2ff"/></radialGradient></defs><g transform="translate(112.13271,28.76665)"><g data-paper-data="{&quot;isPaintingLayer&quot;:true}" fill-rule="nonzero" stroke-linejoin="miter" stroke-miterlimit="10" stroke-dasharray="" stroke-dashoffset="0" style="mix-blend-mode: normal"><path d="M-112.13271,404.24237v-433.00901h730.70268v433.00901z" data-paper-data="{&quot;index&quot;:null}" fill="url(#color-1)" stroke="none" stroke-width="0" stroke-linecap="butt"/><path d="M261.66467,121.39206c0,0 -17.2,-1.51515 -17.2,-2.18182c0,-0.66666 17.2,-1.81818 17.2,-1.81818h3.4v4z" data-paper-data="{&quot;index&quot;:null}" fill="#ffd266" stroke="none" stroke-width="0" stroke-linecap="butt"/><path d="M264.56467,107.14206v4h-3.4c0,0 -17.2,-1.15152 -17.2,-1.81818c0,-0.66666 17.2,-2.18182 17.2,-2.18182z" data-paper-data="{&quot;index&quot;:null}" fill="#ffd266" stroke="none" stroke-width="0" stroke-linecap="butt"/><path d="M265.24324,118.13824v2.54126h-1.52257c0,0 -7.70243,-0.73157 -7.70243,-1.15512c0,-0.42354 7.70243,-1.38614 7.70243,-1.38614z" data-paper-data="{&quot;index&quot;:null}" fill="#ffb303" stroke="none" stroke-width="0" stroke-linecap="butt"/><path d="M264.74324,108.13825v2.54126h-1.52257c0,0 -7.70243,-0.73157 -7.70243,-1.15512c0,-0.42354 7.70243,-1.38614 7.70243,-1.38614z" data-paper-data="{&quot;index&quot;:null}" fill="#ffb303" stroke="none" stroke-width="0" stroke-linecap="butt"/><path d="" fill="none" stroke="#8a8a8a" stroke-width="5" stroke-linecap="round"/><path d="" fill="#818181" stroke="#757575" stroke-width="4.5" stroke-linecap="butt"/><path d="" fill="#818181" stroke="#757575" stroke-width="4.5" stroke-linecap="butt"/><g data-paper-data="{&quot;index&quot;:null}" stroke-width="0"><path d="M157.65673,265.54168l-16.51023,-0.2997l0.03634,-2.00187l16.51023,0.2997z" fill="url(#color-2)" stroke="none" stroke-linecap="butt"/><path d="M141.37389,265.22544l-0.60479,0.00716c-0.17644,-0.03042 -0.94192,-0.09717 -0.94192,-0.09717c0,0 -1.31706,-0.28907 -1.86747,-0.45694c-0.48492,-0.14788 -1.2635,-0.49794 -1.2635,-0.49794c0,0 0.94465,-0.39477 1.46501,-0.542c0.04581,-0.01295 1.68916,-0.35039 1.68916,-0.35039l1.12607,-0.05182l0.41276,0.0075z" fill="url(#color-3)" stroke="#000000" stroke-linecap="round"/><path d="M144.55275,265.34619l-0.24766,-0.0045l0.03716,-2.04727l0.24766,0.0045z" fill="#ffd200" stroke="none" stroke-linecap="butt"/><path d="M141.80503,265.26327l-0.47117,-0.00856l0.03628,-1.999l0.47118,0.00856z" fill="#ffd200" stroke="none" stroke-linecap="butt"/><path d="M148.92691,265.28202l-0.42116,-0.00764l0.0302,-1.66372l0.42115,0.00764z" fill="#150079" stroke="none" stroke-linecap="butt"/><path d="M147.98436,265.42159l-0.41542,-0.00753l0.03674,-2.02383l0.41542,0.00754z" fill="#ffd200" stroke="none" stroke-linecap="butt"/><path d="M149.31603,265.43512l-0.31955,-0.0058l0.03751,-2.06644l0.31955,0.0058z" fill="#ffd200" stroke="none" stroke-linecap="butt"/><path d="M153.75705,265.55836l-0.41543,-0.00754l0.03809,-2.0984l0.41542,0.00754z" fill="#ffd200" stroke="none" stroke-linecap="butt"/><path d="M154.20422,265.57714l-0.36216,-0.00658l0.0379,-2.08774l0.36216,0.00658z" fill="#150079" stroke="none" stroke-linecap="butt"/><path d="M156.70835,265.56931l-0.46867,-0.0085l0.03823,-2.10639l0.46868,0.0085z" fill="#150079" stroke="none" stroke-linecap="butt"/><path d="M154.91563,265.28547l-0.03073,1.69231l-7.31026,-1.02254l-0.02672,-0.80245z" fill="url(#color-4)" stroke="#000000" stroke-linecap="round"/><path d="M147.55505,263.62311l0.05583,-0.80096l7.34257,-0.75655l-0.03072,1.6923z" data-paper-data="{&quot;index&quot;:null}" fill="url(#color-5)" stroke="#000000" stroke-linecap="round"/><path d="M157.65152,266.96607l-1.91932,-0.03485l0.026,-1.43226l1.91932,0.03484z" fill="url(#color-6)" stroke="none" stroke-linecap="butt"/><path d="M157.73433,263.54056l-1.91931,-0.03484l0.0251,-1.38274l1.91932,0.03485z" fill="url(#color-7)" stroke="none" stroke-linecap="butt"/><path d="M151.31956,264.1173c2.05164,0.03724 3.71203,0.22055 3.7086,0.40943c-0.00343,0.18889 -1.66938,0.31181 -3.72101,0.27457c-2.05164,-0.03725 -3.71203,-0.22056 -3.7086,-0.40944c0.00343,-0.18888 1.66938,-0.3118 3.72101,-0.27456z" fill="#f3f3f3" stroke="none" stroke-linecap="butt"/></g><g data-paper-data="{&quot;index&quot;:null}" stroke-width="0" stroke-linecap="butt"><path d="M140.581,265.6296l-0.33967,-0.00617c0,0 -0.20718,-0.23374 -0.20519,-0.34351c0.00227,-0.12481 0.21807,-0.36603 0.21807,-0.36603l0.33967,0.00617z" fill="#b7b3aa" stroke="none"/><path d="M162.64244,265.40193l-5.12832,-0.04779l1.90485,-1.36017l3.24753,0.0816z" data-paper-data="{&quot;index&quot;:null}" fill="#bfbfbf" stroke="#000000"/><path d="M162.60831,267.28148l-3.24836,-0.03632l-1.85423,-1.4284l5.12667,0.13837z" fill="#bfbfbf" stroke="#000000"/><path d="M162.99407,266.17526l-19.56533,-0.35516l0.01785,-0.98344l19.56533,0.35516z" fill="#e2e2e2" stroke="none"/><path d="M143.85698,267.03522l-1.65084,-1.32859l1.6603,0.01625z" fill="#4e5153" stroke="#000000"/><path d="M143.86676,264.97002l-1.6598,-0.04402l1.69798,-1.2678z" data-paper-data="{&quot;index&quot;:null}" fill="#4e5153" stroke="#000000"/><path d="M143.8727,265.82169c0,0 -0.78902,0.04093 -1.24287,0.01869c-0.53904,-0.02642 -1.77999,-0.16684 -1.77999,-0.16684l0.00148,-0.77282c0,0 1.31019,-0.11004 1.86075,-0.11695c0.43479,-0.00545 1.17805,0.07883 1.17805,0.07883z" fill="#4e5153" stroke="none"/><path d="M140.56556,264.90932l0.29513,0.00535l-0.01346,0.74144l-0.29513,-0.00536z" fill="#7a8184" stroke="none"/><path d="M148.47786,265.91983l-0.42702,-0.00776l0.01798,-0.99025l0.42702,0.00776z" fill="#ffe400" stroke="none"/></g><g data-paper-data="{&quot;index&quot;:null}" stroke-width="0"><path d="M157.41202,245.35834l-16.51024,-0.2997l0.03634,-2.00187l16.51024,0.2997z" fill="url(#color-8)" stroke="none" stroke-linecap="butt"/><path d="M141.10815,245.06237l-0.41276,-0.00749l-1.12344,-0.09264c0,0 -1.63002,-0.39686 -1.67533,-0.41147c-0.51468,-0.16602 -1.44438,-0.59482 -1.44438,-0.59482c0,0 0.79077,-0.32155 1.28073,-0.45175c0.55614,-0.14778 1.88282,-0.38886 1.88282,-0.38886c0,0 0.7674,-0.03891 0.94483,-0.06292l0.60413,0.02911z" fill="url(#color-9)" stroke="#000000" stroke-linecap="round"/><path d="M144.30875,245.12351l-0.24766,-0.00449l0.03716,-2.04727l0.24766,0.00449z" fill="#ffd200" stroke="none" stroke-linecap="butt"/><path d="M141.5607,245.05839l-0.47118,-0.00856l0.03629,-1.999l0.47118,0.00855z" fill="#ffd200" stroke="none" stroke-linecap="butt"/><path d="M148.68465,244.96281l-0.42115,-0.00764l0.0302,-1.66372l0.42115,0.00764z" fill="#150079" stroke="none" stroke-linecap="butt"/><path d="M147.74127,245.14926l-0.41542,-0.00754l0.03673,-2.02383l0.41542,0.00754z" fill="#ffd200" stroke="none" stroke-linecap="butt"/><path d="M149.07177,245.22668l-0.31955,-0.0058l0.03751,-2.06644l0.31955,0.0058z" fill="#ffd200" stroke="none" stroke-linecap="butt"/><path d="M153.51375,245.29666l-0.41542,-0.00753l0.03809,-2.0984l0.41542,0.00753z" fill="#ffd200" stroke="none" stroke-linecap="butt"/><path d="M153.96151,245.28346l-0.36216,-0.00658l0.0379,-2.08774l0.36216,0.00658z" fill="#150079" stroke="none" stroke-linecap="butt"/><path d="M156.46337,245.40081l-0.46868,-0.0085l0.03824,-2.10639l0.46867,0.0085z" fill="#150079" stroke="none" stroke-linecap="butt"/><path d="M147.33209,243.37823l0.05584,-0.80096l7.34256,-0.75655l-0.03072,1.6923z" fill="url(#color-10)" stroke="#000000" stroke-linecap="round"/><path d="M154.65141,245.03985l-0.03073,1.6923l-7.31026,-1.02253l-0.02672,-0.80246z" data-paper-data="{&quot;index&quot;:null}" fill="url(#color-11)" stroke="#000000" stroke-linecap="round"/><path d="M157.46885,243.3651l-1.91933,-0.03484l0.02599,-1.43226l1.91933,0.03484z" fill="url(#color-12)" stroke="none" stroke-linecap="butt"/><path d="M157.4282,246.74181l-1.91932,-0.03484l0.0251,-1.38274l1.91931,0.03484z" fill="url(#color-13)" stroke="none" stroke-linecap="butt"/><path d="M151.06367,244.54992c-2.05163,-0.03724 -3.71203,-0.22055 -3.7086,-0.40943c0.00343,-0.18888 1.66937,-0.31181 3.72101,-0.27457c2.05163,0.03725 3.71203,0.22056 3.7086,0.40944c-0.00343,0.18888 -1.66937,0.31181 -3.72101,0.27457z" fill="#f3f3f3" stroke="none" stroke-linecap="butt"/></g><g data-paper-data="{&quot;index&quot;:null}" stroke-width="0" stroke-linecap="butt"><path d="M140.37418,243.35839l-0.33967,-0.00617c0,0 -0.2069,-0.24889 -0.20464,-0.3737c0.00199,-0.10978 0.21753,-0.33584 0.21753,-0.33584l0.33967,0.00617z" fill="#b7b3aa" stroke="none"/><path d="M162.40162,245.00341l-3.24836,-0.03631l-1.85423,-1.42841l5.12667,0.13837z" data-paper-data="{&quot;index&quot;:null}" fill="#bfbfbf" stroke="#000000"/><path d="M162.43574,243.12387l-5.12831,-0.04778l1.90485,-1.36017l3.24753,0.0816z" fill="#bfbfbf" stroke="#000000"/><path d="M162.78732,243.90044l-19.56533,-0.35516l0.01785,-0.98344l19.56533,0.35516z" fill="#e2e2e2" stroke="none"/><path d="M143.67372,242.6749l-1.6598,-0.04402l1.69797,-1.26781z" fill="#4e5153" stroke="#000000"/><path d="M143.63729,244.73961l-1.65084,-1.3286l1.6603,0.01625z" data-paper-data="{&quot;index&quot;:null}" fill="#4e5153" stroke="#000000"/><path d="M143.66616,243.53545c0,0 -0.74584,0.05725 -1.18013,0.03602c-0.54994,-0.02688 -1.85528,-0.1844 -1.85528,-0.1844l0.02658,-0.77237c0,0 1.24522,-0.09529 1.78487,-0.10213c0.45437,-0.00576 1.24138,0.06379 1.24138,0.06379z" fill="#4e5153" stroke="none"/><path d="M140.35895,242.62667l0.29513,0.00536l-0.01346,0.74144l-0.29513,-0.00536z" fill="#7a8184" stroke="none"/><path d="M148.27128,243.63568l-0.42702,-0.00776l0.01798,-0.99025l0.42702,0.00775z" fill="#ffe400" stroke="none"/></g><path d="M178.82243,247.07912c-2.65173,-0.08432 -8.86124,-1.67992 -8.86124,-1.67992l12.58112,-10.69233c0,0 1.13972,-0.40819 1.62247,-0.17826c0.66337,0.31596 1.99104,1.89935 1.99104,1.89935l-1.7692,8.38764c0,0 -3.68837,2.32316 -5.56418,2.26352z" data-paper-data="{&quot;index&quot;:null}" fill="#ffffff" stroke="none" stroke-width="1" stroke-linecap="butt"/><path d="M178.36782,260.97758c1.8767,0.01443 5.46934,2.48127 5.46934,2.48127l1.43259,8.45082c0,0 -1.3899,1.52973 -2.06538,1.81928c-0.49156,0.21071 -1.61406,-0.24212 -1.61406,-0.24212l-12.14387,-11.18028c0,0 6.26838,-1.34935 8.92139,-1.32896z" data-paper-data="{&quot;index&quot;:null}" fill="#ffffff" stroke="none" stroke-width="1" stroke-linecap="butt"/><g data-paper-data="{&quot;index&quot;:null}" stroke-width="0" stroke-linecap="butt"><path d="M183.72962,261.85173l-4.52699,-0.08217l0.08476,-4.66928l4.52699,0.08217z" fill="#998b73" stroke="#ffffff"/><path d="M181.5816,261.79853l-3.8713,-0.07027l0.08597,-4.73551l3.87129,0.07028z" fill="#3b3c40" stroke="none"/></g><g data-paper-data="{&quot;index&quot;:null}" stroke-width="0" stroke-linecap="butt"><path d="M183.8352,251.31116l-4.52698,-0.08217l0.08476,-4.66928l4.52699,0.08217z" fill="#998b73" stroke="#ffffff"/><path d="M181.68719,251.25798l-3.8713,-0.07027l0.08597,-4.73551l3.87129,0.07027z" fill="#3b3c40" stroke="none"/></g><path d="M182.23662,257.1101l-5.74314,-0.10425l0.10684,-5.88594l5.74314,0.10425z" data-paper-data="{&quot;index&quot;:null}" fill="#d6d4d0" stroke="none" stroke-width="0" stroke-linecap="butt"/><path d="M184.92348,255.52779l-5.74314,-0.10425l0.04765,-2.62481l5.74314,0.10425z" data-paper-data="{&quot;index&quot;:null}" fill="#d6d4d0" stroke="none" stroke-width="0" stroke-linecap="butt"/><path d="M179.47035,261.79161c0,0 -2.90257,0.43381 -5.02103,0.47743c-3.7618,0.07747 -15.60877,-0.05264 -15.60877,-0.05264l0.30971,-17.06125c0,0 13.21287,0.34486 16.78241,0.5657c1.68058,0.10398 3.65218,0.69855 3.65218,0.69855z" data-paper-data="{&quot;index&quot;:null}" fill="#d6d4d0" stroke="none" stroke-width="0" stroke-linecap="butt"/><path d="M168.25234,262.34565l-7.57041,-0.13742l0.79642,-3.11756l0.63825,-1.6403l6.3153,3.14383z" data-paper-data="{&quot;index&quot;:null}" fill="#6f716b" stroke="none" stroke-width="0" stroke-linecap="butt"/><path d="M168.38867,247.14676l-6.42524,2.91255l-0.57829,-1.66239l-0.95355,-3.14931l7.84122,0.14234z" data-paper-data="{&quot;index&quot;:null}" fill="#6f716b" stroke="none" stroke-width="0" stroke-linecap="butt"/><g data-paper-data="{&quot;index&quot;:null}"><g data-paper-data="{&quot;index&quot;:null}"><path d="M150.37064,246.32716l-0.11432,-3.26695l3.51196,-9.57457l5.71506,-14.87386c0,0 1.30193,-1.30715 2.36056,-1.83192c1.05863,-0.52477 2.92342,-0.78735 2.92342,-0.78735l-0.91021,14.52911l-1.17458,14.84755l-1.89293,0.99999z" fill="#d6d4d0" stroke="#000000" stroke-width="0" stroke-linecap="round"/><path d="M164.92025,236.16819l-2.45732,-0.04369l0.10357,-5.82479l2.45733,0.0437z" data-paper-data="{&quot;index&quot;:null}" fill="#ffffff" stroke="none" stroke-width="1" stroke-linecap="butt"/><path d="M165.01637,242.37086l-2.45732,-0.0437l0.10358,-5.82478l2.45732,0.0437z" data-paper-data="{&quot;index&quot;:null}" fill="#ffffff" stroke="none" stroke-width="1" stroke-linecap="butt"/><path d="M163.31376,220.13903l2.074,0.18073l-0.34349,9.6284l-2.45732,-0.0437z" data-paper-data="{&quot;index&quot;:null}" fill="#ffffff" stroke="none" stroke-width="1" stroke-linecap="butt"/><path d="M162.29585,242.16833c0,0 0.17354,-8.17592 0.35096,-11.98693c0.16426,-3.52834 0.67713,-10.09656 0.67713,-10.09656" data-paper-data="{&quot;index&quot;:null}" fill="none" stroke="#a5a3a0" stroke-width="1" stroke-linecap="round"/></g><text transform="translate(159.82795,226.73965) rotate(91.04176) scale(0.07563,-0.07563)" font-size="40" xml:space="preserve" fill="#000000" fill-rule="nonzero" stroke="none" stroke-width="1" stroke-linecap="butt" stroke-linejoin="miter" stroke-miterlimit="10" stroke-dasharray="" stroke-dashoffset="0" font-family="Sans Serif" font-weight="normal" text-anchor="start" style="mix-blend-mode: normal"><tspan x="0" dy="0">103</tspan></text></g><g data-paper-data="{&quot;index&quot;:null}"><g><path d="M160.82637,261.0318l1.85538,1.06804l0.63494,14.8804l0.38231,14.55257c0,0 -1.85403,-0.33009 -2.89292,-0.89293c-1.03888,-0.56285 -2.29251,-1.91639 -2.29251,-1.91639l-5.17148,-15.07147l-3.16215,-9.69572l0.23281,-3.26064z" fill="#d6d4d0" stroke="#000000" stroke-width="0" stroke-linecap="round"/><path d="M164.47618,277.20066l-2.4573,-0.04551l0.10789,-5.8247l2.45729,0.04552z" data-paper-data="{&quot;index&quot;:null}" fill="#ffffff" stroke="none" stroke-width="1" stroke-linecap="butt"/><path d="M164.79734,271.00556l-2.4573,-0.04552l0.10789,-5.8247l2.45729,0.04551z" data-paper-data="{&quot;index&quot;:null}" fill="#ffffff" stroke="none" stroke-width="1" stroke-linecap="butt"/><path d="M162.02495,277.55089l2.45729,0.04552l-0.00618,9.63452l-2.07919,0.10534z" data-paper-data="{&quot;index&quot;:null}" fill="#ffffff" stroke="none" stroke-width="1" stroke-linecap="butt"/><path d="M162.40509,287.39079c0,0 -0.27416,-6.5825 -0.31026,-10.11448c-0.039,-3.81494 0.08431,-11.99177 0.08431,-11.99177" data-paper-data="{&quot;index&quot;:null}" fill="none" stroke="#a5a3a0" stroke-width="1" stroke-linecap="round"/></g><g><path d="M159.29045,278.55334l-0.78674,-0.17879l0.19693,-3.86114l0.7484,-0.00173z" fill="#ffffff" stroke="#ffffff" stroke-width="0" stroke-linecap="butt"/><path d="M158.87882,278.46061l0.02866,-0.93677" fill="none" stroke="#ff0000" stroke-width="0.5" stroke-linecap="round"/><path d="M158.97597,275.36521l0.02377,-0.77721z" data-paper-data="{&quot;index&quot;:null}" fill="#ffffff" stroke="#ff0000" stroke-width="0.5" stroke-linecap="butt"/><path d="M159.35863,278.50327l-0.932,-0.0285l0.03133,-1.02432c0,0 0.25836,0.11116 0.45426,0.10115c0.07801,-0.00398 0.16963,-0.01578 0.25204,-0.04166c0.12456,-0.03911 0.22769,-0.09637 0.22769,-0.09637z" fill="none" stroke="#0c00bf" stroke-width="0.5" stroke-linecap="butt"/><path d="M159.46652,275.6092c0,0 -0.09942,-0.06346 -0.22137,-0.1101c-0.08068,-0.03086 -0.17141,-0.04823 -0.24902,-0.05698c-0.19492,-0.02196 -0.4596,0.07321 -0.4596,0.07321l0.03133,-1.02432l0.93199,0.0285z" data-paper-data="{&quot;index&quot;:null}" fill="none" stroke="#0c00bf" stroke-width="0.5" stroke-linecap="butt"/><path d="M157.7093,276.4589c0.01954,-0.63899 0.54565,-1.14137 1.1751,-1.12212c0.62945,0.01926 1.12388,0.55286 1.10434,1.19185c-0.01955,0.63898 -0.54566,1.14137 -1.17511,1.12212c-0.62945,-0.01927 -1.12387,-0.55287 -1.10433,-1.19186z" fill="#0c00bf" stroke="#005fff" stroke-width="0" stroke-linecap="butt"/><path d="M159.0231,276.93455l-0.52265,0.42248l0.01154,-0.59507l-0.54344,-0.27617l0.5497,-0.26332l0.0254,-0.60874l0.48954,0.44796l0.60186,-0.0961l-0.28984,0.53616l0.27737,0.54253z" fill="#ffffff" stroke="#ffffff" stroke-width="0.5" stroke-linecap="butt"/></g></g><path d="M135.78447,247.12662l18.53014,-7.34742l4.97507,2.62801l3.11191,3.65104l1.55517,3.87012l0.13723,8.72064l-1.08765,2.93556l-4.36959,4.64917l-6.53573,1.87619l-16.8137,-7.43488z" data-paper-data="{&quot;index&quot;:null}" fill="#d6d4d0" stroke="#000000" stroke-width="0" stroke-linecap="round"/><path d="M131.32923,260.64068l0.06722,-3.38505l11.7175,0.23268l-0.06722,3.38505z" data-paper-data="{&quot;index&quot;:null}" fill="#d6d4d0" stroke="none" stroke-width="1" stroke-linecap="butt"/><path d="M131.4163,250.35877l0.06722,-3.38506l11.7175,0.23268l-0.06722,3.38506z" data-paper-data="{&quot;index&quot;:null}" fill="#d6d4d0" stroke="none" stroke-width="1" stroke-linecap="butt"/><g data-paper-data="{&quot;index&quot;:null}" fill="#a5a3a0" stroke="none" stroke-width="0" stroke-linecap="butt"><path d="M163.75947,250.14126l-6.50326,-0.11805l0.01065,-0.58664l6.50326,0.11805z"/><path d="M163.72311,258.67159l-6.50326,-0.11805l0.01065,-0.58664l6.50326,0.11805z"/><path d="M161.80077,245.45246l-6.50326,-0.11805l0.01065,-0.58664l6.50326,0.11805z"/><path d="M161.71161,263.41756l-6.50326,-0.11805l0.01065,-0.58665l6.50326,0.11805z"/></g><g data-paper-data="{&quot;index&quot;:null}"><path d="M138.4367,257.26088c0,0 -27.90626,-0.85988 -27.05907,-4.24483c0.86627,-3.46112 27.13956,-2.24052 27.13956,-2.24052z" fill="#d6d4d0" stroke="#000000" stroke-width="0" stroke-linecap="butt"/><g data-paper-data="{&quot;index&quot;:null}" stroke="none" stroke-width="0" stroke-linecap="butt"><path d="M128.54748,251.82788l-3.75968,0.08381l2.06776,-1.26472l3.55482,-0.03894z" data-paper-data="{&quot;index&quot;:null}" fill="#fff100"/><path d="M127.43889,251.81422l-3.75969,0.0838l2.06775,-1.26472l3.55482,-0.03895z" data-paper-data="{&quot;index&quot;:null}" fill="#fff100"/><path d="M128.10472,251.80767l-3.75969,0.08381l2.06776,-1.26472l3.55482,-0.03894z" data-paper-data="{&quot;index&quot;:null}" fill="#000000"/></g><g stroke="none" stroke-width="0" stroke-linecap="butt"><path d="M130.64513,256.83801l-3.54512,-0.26547l-1.98292,-1.39396l3.7467,0.32331z" data-paper-data="{&quot;index&quot;:null}" fill="#fff100"/><path d="M129.53792,256.78096l-3.54511,-0.26547l-1.98292,-1.39396l3.7467,0.32331z" data-paper-data="{&quot;index&quot;:null}" fill="#fff100"/><path d="M130.20198,256.82996l-3.54512,-0.26547l-1.98292,-1.39397l3.74669,0.32332z" data-paper-data="{&quot;index&quot;:null}" fill="#000000"/></g><path d="M149.61757,254.09858l-11.55986,2.36756c0,0 -22.78422,-0.68784 -22.0437,-3.31388c0.7572,-2.68513 22.10226,-1.7204 22.10226,-1.7204z" fill="#000000" stroke="#000000" stroke-width="0" stroke-linecap="butt"/><path d="M136.30628,255.03553c0,0 -14.52639,1.17157 -14.20485,-1.51394c0.33822,-2.82477 14.25647,-1.08563 14.25647,-1.08563l-0.05163,2.59959z" data-paper-data="{&quot;index&quot;:null}" fill="url(#color-14)" stroke="#000000" stroke-width="0" stroke-linecap="round"/><path d="M130.55821,251.62447l0.66597,0.01209c0,0 0.24175,1.3619 0.22966,2.0281c-0.0118,0.65014 -0.30137,1.92209 -0.30137,1.92209l-0.66597,-0.01209c0,0 0.28928,-1.25589 0.30137,-1.92209c0.01181,-0.65014 -0.22966,-2.0281 -0.22966,-2.0281z" data-paper-data="{&quot;index&quot;:null}" fill="#000000" stroke="none" stroke-width="0" stroke-linecap="butt"/><path d="M126.49981,253.48792c-0.01209,0.66619 0.23141,1.93176 0.23141,1.93176l-0.66598,-0.01209c0,0 -0.24322,-1.28162 -0.23141,-1.93176c0.01209,-0.6662 0.30312,-2.01843 0.30312,-2.01843l0.66597,0.01209c0,0 -0.2913,1.36829 -0.30311,2.01843z" data-paper-data="{&quot;index&quot;:null}" fill="#000000" stroke="none" stroke-width="0" stroke-linecap="butt"/><path d="M111.4315,253.01705c0.26234,-1.04816 2.85478,-1.66696 6.34197,-2.02031c-0.03581,0.42624 -0.78223,1.24957 -0.82782,2.25407c-0.01207,0.26599 0.60679,2.05657 0.57137,2.2818c-3.72009,-0.61913 -6.35477,-1.43983 -6.08553,-2.51555z" fill="#d6d4d0" stroke="#000000" stroke-width="0" stroke-linecap="butt"/><path d="M122.22907,252.74161c0,0 0.30907,-0.06622 0.70905,-0.07193c0.4722,-0.00676 1.07125,0.04933 1.44016,0.08839c0.58123,0.06152 1.5958,0.38889 1.5958,0.38889l-0.01117,0.87515c0,0 -1.1326,0.2915 -1.72798,0.33974c-0.28994,0.02349 -0.78743,0.08976 -1.16406,0.07634c-0.45207,-0.01611 -0.83536,-0.06123 -0.83536,-0.06123" fill="none" stroke="#000000" stroke-width="1" stroke-linecap="round"/></g><g data-paper-data="{&quot;index&quot;:null}" fill="#9b9b99" stroke="none" stroke-width="0" stroke-linecap="butt"><path d="M133.85431,250.36692l-2.41691,-0.04387l0.03232,-1.78081l2.41691,0.04387z"/><path d="M136.4113,250.41335l-2.4169,-0.04387l0.03232,-1.78081l2.41691,0.04387z"/><path d="M139.00336,250.46038l-2.4169,-0.04387l0.03232,-1.78081l2.41691,0.04387z"/></g><g data-paper-data="{&quot;index&quot;:null}" fill="#9b9b99" stroke="none" stroke-width="0" stroke-linecap="butt"><path d="M133.82401,259.15842l-2.41691,-0.04387l0.03232,-1.78081l2.41691,0.04387z"/><path d="M136.38104,259.20482l-2.41691,-0.04387l0.03233,-1.7808l2.4169,0.04387z"/><path d="M138.97307,259.25188l-2.41691,-0.04387l0.03232,-1.78081l2.41691,0.04387z"/></g><path d="M183.64324,261.39205v-4h3.4c0,0 17.2,1.15152 17.2,1.81818c0,0.66667 -17.2,2.18182 -17.2,2.18182z" data-paper-data="{&quot;index&quot;:null}" fill="#ffd266" stroke="none" stroke-width="0" stroke-linecap="butt"/><path d="M187.54324,247.14205c0,0 17.2,1.51516 17.2,2.18182c0,0.66666 -17.2,1.81818 -17.2,1.81818h-3.4v-4z" data-paper-data="{&quot;index&quot;:null}" fill="#ffd266" stroke="none" stroke-width="0" stroke-linecap="butt"/><path d="M184.98724,258.13825c0,0 7.70243,0.9626 7.70243,1.38614c0,0.42355 -7.70243,1.15512 -7.70243,1.15512h-1.52257v-2.54126z" data-paper-data="{&quot;index&quot;:null}" fill="#ffb303" stroke="none" stroke-width="0" stroke-linecap="butt"/><path d="M185.48724,248.13825c0,0 7.70243,0.9626 7.70243,1.38614c0,0.42355 -7.70243,1.15512 -7.70243,1.15512h-1.52257v-2.54126z" data-paper-data="{&quot;index&quot;:null}" fill="#ffb303" stroke="none" stroke-width="0" stroke-linecap="butt"/><g data-paper-data="{&quot;index&quot;:null}" stroke="none" stroke-width="0" stroke-linecap="butt"><g><path d="M172.35743,249.39962c-2.35664,-0.04278 -4.26345,-0.27678 -4.25898,-0.52266c0.00447,-0.24588 1.91851,-0.41052 4.27515,-0.36774c1.06289,0.0193 4.75507,-0.53429 7.83494,-0.69138c2.48581,-0.1268 4.57038,0.13485 4.57001,0.15516c-0.00028,0.01535 -0.64984,0.62117 -2.26285,0.8346c-3.254,0.43054 -8.87952,0.61523 -10.15826,0.59202z" fill="#000000"/><path d="M184.80371,247.81697c0.15209,0.05639 -0.28993,0.32782 -0.28993,0.32782c0,0 -3.0255,-0.00462 -3.43061,-0.00524c-0.0872,-0.00013 -0.15896,-0.00024 -0.15896,-0.00024l-2.20111,-0.18498c0,0 3.87801,-0.25691 4.62059,-0.24343c0.65564,0.0119 1.30792,0.04966 1.46001,0.10606z" fill="#fff100"/><path d="M169.99652,249.49536c-1.09748,-0.01992 -2.04696,-0.65229 -2.04476,-0.77309c0.00219,-0.12081 0.88565,-0.73981 1.98313,-0.71988c0.40566,0.00736 1.42419,-0.1126 1.73759,-0.04967c0.084,0.01688 1.5499,-0.07921 1.62417,-0.06059c0.03369,0.00845 1.36975,0.2946 1.39541,0.3195c0.27766,0.26948 -1.19387,1.14327 -1.19494,1.20203c-0.00219,0.12081 -2.40311,0.10165 -3.50059,0.08172z" fill="#000000"/><path d="M175.3525,248.24995c0.00003,-0.00001 4.55143,-0.43282 4.55037,-0.3749c-0.00048,0.02663 0.21985,0.31647 -0.91544,0.4777c-1.03451,0.14691 -3.96597,0.64706 -4.0035,0.64638c-0.02613,-0.00048 -1.24093,0.06226 -2.04981,0.03683c-0.5714,-0.01797 -0.85763,-0.21775 -0.85707,-0.24874c0.00055,-0.03049 0.2437,-0.26329 0.80557,-0.38208c0.03146,-0.00665 2.4663,-0.15527 2.46988,-0.1552z" fill="#ffffff"/></g><g data-paper-data="{&quot;index&quot;:null}"><path d="M168.18056,258.88037c0.00447,-0.24587 1.91851,-0.41052 4.27515,-0.36774c1.27874,0.02321 6.89385,0.41193 10.13009,0.9603c1.6042,0.27182 2.23135,0.90082 2.23107,0.91618c-0.00037,0.0203 -2.09306,0.20612 -4.57263,-0.01081c-3.07215,-0.26877 -6.7418,-0.95599 -7.80469,-0.97528c-2.35664,-0.04278 -4.26345,-0.27678 -4.25898,-0.52266z" fill="#000000"/><path d="M184.83632,260.54594c-0.15403,0.05084 -0.80725,0.06491 -1.4629,0.05301c-0.74257,-0.01348 -3.95467,-0.33272 -3.95467,-0.33272l1.55233,-0.18322c0,0 0.07171,0.00249 0.15886,0.00552c0.40487,0.01409 3.42855,0.11927 3.42855,0.11927c0,0 0.43186,0.2873 0.27783,0.33814z" fill="#fff100"/><path d="M168.02835,259.02963c0.00219,-0.1208 0.974,-0.71831 2.07148,-0.69838c1.09748,0.01992 3.49752,0.08791 3.49532,0.20871c-0.00107,0.05875 1.43779,0.98538 1.15053,1.24461c-0.02655,0.02395 -1.37212,0.26142 -1.4061,0.26864c-0.07489,0.01591 -1.53634,-0.13332 -1.62089,-0.11951c-0.31548,0.0515 -1.32898,-0.10535 -1.73465,-0.11271c-1.09747,-0.01992 -1.95789,-0.67058 -1.95569,-0.79138z" fill="#000000"/><path d="M172.94445,259.52551c-0.55718,-0.1391 -0.79172,-0.38056 -0.79117,-0.41106c0.00057,-0.03098 0.29387,-0.22025 0.86554,-0.21746c0.80926,0.00394 2.02098,0.11072 2.04711,0.1112c0.03754,0.00068 2.94891,0.60689 3.97741,0.79125c1.12868,0.20233 0.89797,0.48399 0.89749,0.51062c-0.00105,0.05791 -4.53374,-0.53981 -4.53376,-0.53981c-0.00359,-0.00006 -2.43143,-0.23696 -2.46262,-0.24474z" fill="#ffffff"/></g></g><path d="M302.22338,128.54037l-21.68472,-0.19275" data-paper-data="{&quot;index&quot;:null}" fill="none" stroke="#000000" stroke-width="0.5" stroke-linecap="round"/><path d="M301.41406,100.97669l-21.68472,-0.19275" data-paper-data="{&quot;index&quot;:null}" fill="none" stroke="#000000" stroke-width="0.5" stroke-linecap="round"/><path d="M306.71398,119.1017l-26.0967,26.94393l-6.66231,-0.05605v-32.47692z" data-paper-data="{&quot;index&quot;:null}" fill="#5390ad" stroke="#000000" stroke-width="0.15" stroke-linecap="butt"/><path d="M264.84784,107.49333v-2.56794h7.92641v2.56794z" data-paper-data="{&quot;index&quot;:null}" fill="#5390ad" stroke="#000000" stroke-width="0.15" stroke-linecap="butt"/><path d="M264.59617,125.25061v-2.56794h7.92641v2.56794z" data-paper-data="{&quot;index&quot;:null}" fill="#5390ad" stroke="#000000" stroke-width="0.15" stroke-linecap="butt"/><path d="M340.6021,115.02916v-0.38451h9.6778v0.38451z" data-paper-data="{&quot;index&quot;:null}" fill="#565758" stroke="#000000" stroke-width="0.15" stroke-linecap="butt"/><path d="M274.71714,116.26646v-32.47692l6.66231,-0.05607l26.0967,26.94393z" data-paper-data="{&quot;index&quot;:null}" fill="#5390ad" stroke="#000000" stroke-width="0.15" stroke-linecap="butt"/><path d="M264.91545,124.35669c0,0 1.66236,-5.96395 1.74038,-9.17594c0.07615,-3.13503 -1.27777,-9.87073 -1.27777,-9.87073l39.92803,0.57826c0,0 24.40254,6.11017 24.40254,9.00999c0,3.09002 -24.40254,8.99582 -24.40254,8.99582z" data-paper-data="{&quot;index&quot;:null}" fill="#5390ad" stroke="#000000" stroke-width="0.15" stroke-linecap="butt"/><path d="M309.49618,117.90884v-5.6094l24.2187,0.14456v5.24799z" data-paper-data="{&quot;index&quot;:null}" fill="#4a586b" stroke="#000000" stroke-width="0.15" stroke-linecap="butt"/><path d="M319.11737,116.94717v-3.92744h7.52103c0,0 1.02308,1.43382 1.02308,2.14933c0,0.54907 -1.02308,1.77813 -1.02308,1.77813z" data-paper-data="{&quot;index&quot;:null}" fill="#000000" stroke="#000000" stroke-width="0.15" stroke-linecap="butt"/><path d="M263.63297,122.9642v-5.50705h8.19862v5.50705z" data-paper-data="{&quot;index&quot;:null}" fill="#252423" stroke="#000000" stroke-width="0.15" stroke-linecap="butt"/><path d="M263.60462,112.65331v-5.50705h8.19862v5.50705z" data-paper-data="{&quot;index&quot;:null}" fill="#252423" stroke="#000000" stroke-width="0.15" stroke-linecap="butt"/><path d="M255.41148,135.73269l5.05851,-10.7188h12.1886l-11.85137,11.12219z" data-paper-data="{&quot;index&quot;:null}" fill="#2f4c58" stroke="#000000" stroke-width="0.15" stroke-linecap="butt"/><path d="M260.95105,93.97825l11.85137,11.12219h-12.1886l-5.05851,-10.7188z" data-paper-data="{&quot;index&quot;:null}" fill="#2f4c58" stroke="#000000" stroke-width="0.15" stroke-linecap="butt"/><path d="M269.06168,112.6998v-5.50705h8.19862v5.50705z" data-paper-data="{&quot;index&quot;:null}" fill="#7d7976" stroke="#000000" stroke-width="0.15" stroke-linecap="butt"/><path d="M269.09004,122.91431v-5.50705h8.19862v5.50705z" data-paper-data="{&quot;index&quot;:null}" fill="#7d7976" stroke="#000000" stroke-width="0.15" stroke-linecap="butt"/><path d="M264.37244,127.2449v-0.03634h1.68297v0.03634z" data-paper-data="{&quot;index&quot;:null}" fill="#4a586b" stroke="#000000" stroke-width="0.15" stroke-linecap="butt"/><path d="M265.7993,116.62258c0,0 0.28912,-1.05183 0.28912,-1.59193c0,-0.49827 -0.28912,-1.5333 -0.28912,-1.5333h17.12241v3.12524z" data-paper-data="{&quot;index&quot;:null}" fill="#4a586b" stroke="#000000" stroke-width="0.15" stroke-linecap="butt"/><path d="M280.7282,118.42931c0,0 -4.75623,-2.44141 -4.75623,-3.56132c0,-1.15623 4.75623,-3.27059 4.75623,-3.27059h31.2771l-0.13911,6.83191z" data-paper-data="{&quot;index&quot;:null}" fill="#4a586b" stroke="none" stroke-width="0" stroke-linecap="butt"/><path d="M314.74853,116.94503c0,0 -0.33182,-1.06601 -0.33182,-1.65523c0,-0.70061 0.33182,-2.27243 0.33182,-2.27243h8.48882c0,0 0.47007,1.37577 0.47007,2.04799c0,0.63486 -0.47007,1.87967 -0.47007,1.87967z" data-paper-data="{&quot;index&quot;:null}" fill="#000000" stroke="#000000" stroke-width="0.15" stroke-linecap="butt"/><path d="M343.0521,114.80836c0,0 -1.91384,0.79073 -3.13384,1.16074c-1.71234,0.51934 -6.17356,1.66211 -6.17356,1.66211v-5.13588c0,0 4.22623,0.84001 5.92631,1.2625c1.28413,0.31912 3.3811,1.05053 3.3811,1.05053z" data-paper-data="{&quot;index&quot;:null}" fill="#dcdfe1" stroke="#000000" stroke-width="0.15" stroke-linecap="butt"/><path d="M289.09546,92.66471c3.82866,4.47364 8.94859,10.017 11.85815,13.1329c1.38941,1.48793 15.14104,3.94027 15.14104,3.94027c0,0 -21.14295,0.39545 -24.89873,-0.39545c-0.68808,-0.1449 -2.28307,-0.23148 -3.96892,-0.45909c-2.61803,-0.35344 -5.45517,-0.84289 -5.45517,-0.84289c0,0 -0.35618,-1.47067 -0.74505,-3.38857c-0.54724,-2.69899 -1.23012,-6.28366 -1.69455,-7.90148c-0.95137,-3.31414 -2.94593,-11.60416 -2.94593,-11.60416c0,0 1.76364,-0.10365 2.64668,-0.08317c0.88467,0.02052 2.65643,0.2062 2.65643,0.2062c0,0 3.82773,3.21436 7.40603,7.39548z" data-paper-data="{&quot;index&quot;:null}" fill="#4a586b" stroke="none" stroke-width="0" stroke-linecap="butt"/><path d="M300.19141,124.03184c-2.90955,3.11589 -8.02949,8.65924 -11.85815,13.1329c-3.5783,4.18111 -7.40603,7.39549 -7.40603,7.39549c0,0 -1.77178,0.18566 -2.65645,0.2062c-0.88304,0.02048 -2.64667,-0.08317 -2.64667,-0.08317c0,0 1.99455,-8.29002 2.94593,-11.60416c0.46443,-1.61785 1.1473,-5.2025 1.69455,-7.90148c0.38887,-1.91788 0.74505,-3.38857 0.74505,-3.38857c0,0 2.83713,-0.48944 5.45517,-0.84289c1.68585,-0.22759 3.28084,-0.31419 3.96892,-0.45909c3.75575,-0.79092 24.89873,-0.39545 24.89873,-0.39545c0,0 -13.75163,2.45231 -15.14104,3.94027z" data-paper-data="{&quot;index&quot;:null}" fill="#4a586b" stroke="none" stroke-width="0" stroke-linecap="butt"/><path d="M274.86689,105.30387v-5.25674h3.68032v5.25674z" data-paper-data="{&quot;index&quot;:null}" fill="none" stroke="#000000" stroke-width="0.15" stroke-linecap="butt"/><path d="M274.92155,91.47922l1.32999,-0.05782l0.11565,6.76563l-1.50346,0.05782" data-paper-data="{&quot;index&quot;:null}" fill="none" stroke="#000000" stroke-width="0.15" stroke-linecap="round"/><path d="M274.10651,133.4908v-6.37454h3.74116v6.37454z" data-paper-data="{&quot;index&quot;:null}" fill="none" stroke="#000000" stroke-width="0.15" stroke-linecap="butt"/><path d="M274.11198,136.45833h1.50348l-0.69391,6.7078l-0.80957,0.05781" data-paper-data="{&quot;index&quot;:null}" fill="none" stroke="#000000" stroke-width="0.15" stroke-linecap="round"/><path d="M316.43063,119.45633l0.23131,-1.04087l6.47649,0.11565l-4.51043,1.61912l-4.39477,-1.04087" data-paper-data="{&quot;index&quot;:null}" fill="none" stroke="#000000" stroke-width="0.15" stroke-linecap="round"/><path d="M316.74964,112.33006v-1.20844h5.56612v1.20844z" data-paper-data="{&quot;index&quot;:null}" fill="none" stroke="#000000" stroke-width="0.15" stroke-linecap="butt"/><path d="M316.83541,110.1499l-0.11565,1.0987l-2.42869,-0.05782" data-paper-data="{&quot;index&quot;:null}" fill="none" stroke="#000000" stroke-width="0.15" stroke-linecap="round"/><path d="M280.83748,111.79665l0.34695,-1.38782l20.99081,0.17347" data-paper-data="{&quot;index&quot;:null}" fill="none" stroke="#000000" stroke-width="0.15" stroke-linecap="round"/><path d="M301.77805,119.5295l-20.99081,0.17347l-0.34695,-1.38782" data-paper-data="{&quot;index&quot;:null}" fill="none" stroke="#000000" stroke-width="0.15" stroke-linecap="round"/><path d="M304.9787,119.75513v-1.29908h2.43328v1.29908z" data-paper-data="{&quot;index&quot;:null}" fill="none" stroke="#000000" stroke-width="0.15" stroke-linecap="butt"/><path d="M305.15009,111.5613v-1.29908h2.43328v1.29908z" data-paper-data="{&quot;index&quot;:null}" fill="none" stroke="#000000" stroke-width="0.15" stroke-linecap="butt"/><path d="M259.79672,103.05718l-3.59063,-7.53392l1.92199,-0.91602l3.59063,7.53392z" data-paper-data="{&quot;index&quot;:null}" fill="none" stroke="#000000" stroke-width="0.15" stroke-linecap="butt"/><path d="M261.50693,128.19333l-3.59063,7.53392l-1.92199,-0.91602l3.59063,-7.53392z" data-paper-data="{&quot;index&quot;:null}" fill="none" stroke="#000000" stroke-width="0.15" stroke-linecap="butt"/><path d="M265.85999,103.04394l-1.04087,-0.34695" data-paper-data="{&quot;index&quot;:null}" fill="none" stroke="#000000" stroke-width="0.15" stroke-linecap="round"/></g></g></svg>