<svg version="1.1" xmlns="http://www.w3.org/2000/svg" xmlns:xlink="http://www.w3.org/1999/xlink" width="200.50263" height="197.408" viewBox="0,0,200.50263,197.408"><g transform="translate(-139.36366,-81.296)"><g data-paper-data="{&quot;isPaintingLayer&quot;:true}" fill-rule="nonzero" stroke="#000000" stroke-width="1" stroke-linejoin="miter" stroke-miterlimit="10" stroke-dasharray="" stroke-dashoffset="0" style="mix-blend-mode: normal"><path d="M323.40831,179.93707l8.57143,6.14286l-1.28571,36.71429c0,0 -0.8121,4.12187 -9.14693,4.06685c-7.90712,-0.05219 -8.56736,-3.924 -8.56736,-3.924l-9,-40z" data-paper-data="{&quot;index&quot;:null}" fill="#b4b4b4" stroke-linecap="round"/><path d="M303.97974,177.06293l9,-40c0,0 0.66024,-3.87181 8.56736,-3.924c8.33483,-0.05502 9.14693,4.06685 9.14693,4.06685l1.28571,36.71429l-8.57143,6.14286z" data-paper-data="{&quot;index&quot;:null}" fill="#b4b4b4" stroke-linecap="round"/><path d="M183.78854,187.14449c0,0 24.51382,0.68351 38.89322,0.24646c17.90285,-0.54414 60.28876,-3.26098 60.28876,-3.26098c0,0 -34.3774,4.75666 -45.55517,9.32356c-1.19775,0.48937 -0.88979,82.01045 -28.39066,84.72134c-19.40723,1.91306 -25.23614,-91.03038 -25.23614,-91.03038z" data-paper-data="{&quot;index&quot;:null}" fill="#b4b4b4" stroke-linecap="round"/><path d="M183.78855,172.85551c0,0 5.82891,-92.94344 25.23614,-91.03038c27.50087,2.71089 27.19291,84.23197 28.39066,84.72134c11.17777,4.5669 45.55517,9.32356 45.55517,9.32356c0,0 -42.38591,-2.71684 -60.28876,-3.26098c-14.3794,-0.43705 -38.89322,0.24646 -38.89322,0.24646z" data-paper-data="{&quot;index&quot;:null}" fill="#b4b4b4" stroke-linecap="round"/><path d="M150.30117,172.8665c0,0 36.23867,-3.19604 60.93553,-3.01618c51.68612,0.37642 114.93947,9.40507 114.93947,9.40507v1.48922c0,0 -63.25335,9.02865 -114.93947,9.40507c-24.69686,0.17986 -60.93553,-3.01618 -60.93553,-3.01618z" data-paper-data="{&quot;index&quot;:null}" fill="#b4b4b4" stroke-linecap="round"/><path d="M261.55116,180.12457c0,0 -2.58073,5.81955 -45.85714,5.95536c-8.41923,0.02643 -10.46699,-4.67207 -10.71429,-6.22321v0.28656c0.2473,-1.55114 2.29506,-6.24964 10.71429,-6.22321c43.27641,0.13581 45.85714,5.95536 45.85714,5.95536z" data-paper-data="{&quot;index&quot;:null}" fill="#b6c6cc" stroke-linecap="round"/><path d="M207.26545,183.5085h8.57143" data-paper-data="{&quot;index&quot;:null}" fill="none" stroke-linecap="round"/><path d="M233.40831,180.17815l27.48214,-0.14286" data-paper-data="{&quot;index&quot;:null}" fill="none" stroke-linecap="round"/><path d="M150.36367,186.946c0,0 -3.93196,-0.83288 -6.02684,-2.12971c-2.09488,-1.29683 -4.45043,-2.73327 -4.47316,-4.62029v-0.392c0.02273,-1.88702 2.37828,-3.32346 4.47316,-4.62029c2.09488,-1.29683 6.02684,-2.12971 6.02684,-2.12971z" data-paper-data="{&quot;index&quot;:null}" fill="#000000" stroke-linecap="round"/><path d="M207.26545,176.4915h8.57143" data-paper-data="{&quot;index&quot;:null}" fill="none" stroke-linecap="round"/><path d="M215.97974,174.34864v11.30272" data-paper-data="{&quot;index&quot;:null}" fill="none" stroke-linecap="round"/><path d="M233.1226,174.49149v11.01702" data-paper-data="{&quot;index&quot;:null}" fill="none" stroke-linecap="round"/><path d="M261.07795,179.96472l-27.66964,-0.14286" data-paper-data="{&quot;index&quot;:null}" fill="none" stroke-linecap="round"/><path d="M305.3588,178.65107c1.72886,-0.10192 4.16514,-0.1593 7.59828,-0.1593c11.77816,0 26.40921,0.67525 26.40921,1.50823c0,0.83297 -14.63104,1.50823 -26.40921,1.50823c-11.77816,0 -11.82338,-0.67525 -11.82338,-1.50823c0,-0.59018 0.02271,-1.10118 4.2251,-1.34892z" data-paper-data="{&quot;index&quot;:null}" fill="#b4b4b4" stroke-linecap="butt"/></g></g></svg>