<svg version="1.1" xmlns="http://www.w3.org/2000/svg" xmlns:xlink="http://www.w3.org/1999/xlink" width="250.04974" height="146.13365" viewBox="0,0,250.04974,146.13365"><g transform="translate(-114.97513,-106.93252)"><g data-paper-data="{&quot;isPaintingLayer&quot;:true}" fill-rule="nonzero" stroke-linejoin="miter" stroke-miterlimit="10" stroke-dasharray="" stroke-dashoffset="0" style="mix-blend-mode: normal"><path d="M349.94103,188.34208v-16.68417h9.68449v16.68417z" data-paper-data="{&quot;index&quot;:null}" fill="#888888" stroke="#000000" stroke-width="1" stroke-linecap="butt"/><path d="M360.47671,180.04322c0,0 -4.47088,4.01023 -5.17785,5.07069c-0.70697,1.06046 -0.76709,3.64366 -0.76709,3.64366l-25.69745,1.53418c0,0 -4.0926,1.41943 -4.17104,2.63686c-0.50579,7.85109 -4.11351,59.63756 -4.11351,59.63756h-4.69842c0,0 -4.91029,0.20842 -13.85552,-4.6313c-9.04261,-4.89241 -90.37224,-51.61 -90.37224,-51.61l-26.92299,-0.2252c0,0 -0.64177,-0.56982 -0.88705,-0.88615c-0.222,-0.2863 -0.52179,-0.93072 -0.52179,-0.93072l-0.22046,-6.39358c0,0 -24.23756,0.16743 -39.65191,-1.28696c-20.41391,-1.92611 -27.94426,-6.54636 -27.94426,-6.54636v-0.1118c0,0 7.53035,-4.62025 27.94426,-6.54636c15.41436,-1.45439 39.65191,-1.28696 39.65191,-1.28696l0.22046,-6.39358c0,0 0.29979,-0.64442 0.52179,-0.93072c0.24528,-0.31633 0.88705,-0.88615 0.88705,-0.88615l26.92299,-0.2252c0,0 81.32963,-46.71759 90.37224,-51.61c8.94523,-4.83973 13.85552,-4.6313 13.85552,-4.6313h4.69842c0,0 3.60772,51.78647 4.11351,59.63756c0.07844,1.21743 4.17104,2.63686 4.17104,2.63686l25.69745,1.53418c0,0 0.06012,2.5832 0.76709,3.64366c0.70698,1.06046 5.17785,5.07069 5.17785,5.07069z" data-paper-data="{&quot;index&quot;:null}" fill="#989898" stroke="#000000" stroke-width="1" stroke-linecap="round"/><path d="M211.05045,163.67451c0,0 44.00189,1.51373 64.41612,2.54388c18.77508,0.94744 53.56389,3.40968 53.56389,3.40968" data-paper-data="{&quot;index&quot;:null}" fill="none" stroke="#000000" stroke-width="1" stroke-linecap="round"/><path d="M329.03047,190.37193c0,0 -34.78882,2.46224 -53.56389,3.40968c-20.41423,1.03014 -64.41612,2.54388 -64.41612,2.54388" data-paper-data="{&quot;index&quot;:null}" fill="none" stroke="#000000" stroke-width="1" stroke-linecap="round"/><g data-paper-data="{&quot;index&quot;:null}" stroke="#000000" stroke-width="1" stroke-linecap="round"><path d="M186.15812,178.64822v3.16424l-3.30807,4.31487l-31.78622,-0.28766l-4.60253,-2.44509v-6.78917l4.60253,-2.44509l31.78622,-0.28766l3.30807,4.31487v3.16424" fill="#b9c8cc"/><path d="M166.45354,185.83967c0,0 -1.47926,-1.77359 -1.96897,-2.91625c-0.48971,-1.14266 -0.48971,-4.70419 0,-5.84685c0.48971,-1.14265 1.96897,-2.91625 1.96897,-2.91625" fill="none"/><path d="M164.05074,182.38778l-17.58944,0.14383v-5.06322l17.58944,0.14383" data-paper-data="{&quot;index&quot;:null}" fill="none"/></g><path d="M146.625,176.66743c0,0 1.95941,-1.28864 3.00986,-1.72633c0.93643,-0.39018 2.99014,-0.77367 2.99014,-0.77367v11.91667c0,0 -2.1964,-0.77869 -3.21068,-1.25109c-1.01349,-0.47204 -2.87265,-1.58224 -2.87265,-1.58224l0.08333,-6.58333z" data-paper-data="{&quot;index&quot;:null}" fill="#000000" stroke="none" stroke-width="0" stroke-linecap="butt"/><path d="M286.45543,179.10733c0,0 -44.32195,-2.22404 -62.41758,-4.07459c-15.00791,-1.53478 -41.13315,-2.94533 -41.13315,-2.94533" data-paper-data="{&quot;index&quot;:null}" fill="none" stroke="#000000" stroke-width="1" stroke-linecap="round"/><path d="M182.9047,187.91261c0,0 26.12524,-1.41056 41.13315,-2.94534c18.09563,-1.85056 62.41758,-4.0746 62.41758,-4.0746" data-paper-data="{&quot;index&quot;:null}" fill="none" stroke="#000000" stroke-width="1" stroke-linecap="round"/><path d="M278.42009,180c0,-0.94937 0.10184,-1.71898 26.62779,-1.71898c26.52596,0 59.47699,0.7696 59.47699,1.71898c0,0.94937 -32.95104,1.71898 -59.47699,1.71898c-7.73189,0 -13.21871,-0.06541 -17.11233,-0.18157c-9.46433,-0.28237 -9.51546,-0.86476 -9.51546,-1.53741z" data-paper-data="{&quot;index&quot;:null}" fill="#989898" stroke="#000000" stroke-width="1" stroke-linecap="butt"/></g></g></svg>