<svg version="1.1" xmlns="http://www.w3.org/2000/svg" xmlns:xlink="http://www.w3.org/1999/xlink" width="209.88459" height="295.04028" viewBox="0,0,209.88459,295.04028"><g transform="translate(-135.05771,-32.44817)"><g data-paper-data="{&quot;isPaintingLayer&quot;:true}" fill-rule="nonzero" stroke="#000000" stroke-width="1" stroke-linejoin="miter" stroke-miterlimit="10" stroke-dasharray="" stroke-dashoffset="0" style="mix-blend-mode: normal"><path d="M168.11064,143.22314c2.26659,-1.29388 4.58562,-1.40382 4.58562,-1.40382l-0.00856,7.57846c0,0 -2.31904,-0.10993 -4.58562,-1.40382c-2.41261,-1.37726 -3.06922,-2.38541 -3.06922,-2.38541c0,0 0.66516,-1.00815 3.07778,-2.38541z" data-paper-data="{&quot;index&quot;:null}" fill="#000000" stroke-linecap="round"/><path d="M165.03285,214.39145c0,0 0.65661,-1.00815 3.06922,-2.38541c2.26659,-1.29388 4.58562,-1.40382 4.58562,-1.40382l0.00856,7.57846c0,0 -2.31904,-0.10993 -4.58562,-1.40382c-2.41262,-1.37726 -3.07778,-2.38541 -3.07778,-2.38541z" fill="#000000" stroke-linecap="round"/><path d="M333.87526,174.24941c0,0 3.01708,0.03897 4.8771,0.44279c1.86002,0.40382 2.78816,0.74437 3.71366,1.63285c1.00353,0.96339 1.97628,3.65896 1.97628,3.65896v0.03198c0,0 -0.97275,2.69557 -1.97628,3.65896c-0.9255,0.88848 -1.85364,1.22903 -3.71366,1.63285c-1.86002,0.40382 -4.8771,0.44279 -4.8771,0.44279z" data-paper-data="{&quot;index&quot;:null}" fill="#b6c6cc" stroke-linecap="round"/><path d="M145.83445,187.51826c0,0 -3.15249,-0.44472 -4.75269,-0.94768c-1.65938,-0.52156 -2.61984,-0.69401 -4.1613,-1.91146c-1.3377,-1.05651 -1.36275,-3.99617 -1.36275,-3.99617v-1.32591c0,0 0.02506,-3.03058 1.36275,-4.08708c1.54147,-1.21745 2.44663,-1.3543 4.10601,-1.82055c1.61484,-0.45374 4.80799,-0.94768 4.80799,-0.94768z" data-paper-data="{&quot;index&quot;:null}" fill="#b6c6cc" stroke-linecap="round"/><path d="M306.46588,172.6922l9.72517,-39.04584c0,0 1.47633,-6.38668 5.80607,-6.38668c4.66842,0 5.12946,3.84857 5.51577,6.38668c0.54074,3.55278 1.45152,40.20705 1.45152,40.20705z" data-paper-data="{&quot;index&quot;:null}" fill="#7d6d5a" stroke-linecap="round"/><path d="M328.96441,186.14659c0,0 -0.91078,36.65427 -1.45152,40.20705c-0.38631,2.53811 -0.84735,6.38668 -5.51577,6.38668c-4.32974,0 -5.80607,-6.38668 -5.80607,-6.38668l-9.72517,-39.04584z" fill="#7d6d5a" stroke-linecap="round"/><path d="M243.32427,190.43204l-23.46333,129.48538c0,0 -4.06458,6.69651 -8.50754,7.07103c-6.80226,0.5734 -7.54209,-2.93214 -7.54209,-2.93214l-11.87605,-133.59244z" fill="#7d6d5a" stroke-linecap="round"/><path d="M211.42267,220.76814c-6.0881,1.3621 -13.89673,1.74266 -18.34518,1.78198c-4.44845,0.03932 -7.67516,-0.75442 -11.2613,-1.52027c-3.04008,-0.64924 -9.04283,-1.89022 -9.04283,-1.89022l-0.01429,-9.46738c0,0 6.00058,-1.08598 9.04066,-1.73522c3.58613,-0.76584 6.81285,-1.55959 11.2613,-1.52027c4.44846,0.03932 12.25709,0.41988 18.34518,1.78198c6.03463,1.35014 17.79216,6.15098 17.79216,6.15098c0,0 -11.74106,5.06829 -17.7757,6.41844z" data-paper-data="{&quot;index&quot;:null}" fill="#7d6d5a" stroke-linecap="round"/><path d="M334.12535,183.21762l2.78691,-2.78691l3.48364,4.06425" fill="none" stroke-linecap="round"/><path d="M343.53118,181.4758l-5.26417,0.11612" fill="none" stroke-linecap="round"/><path d="M139.30523,186.08918l2.17728,-2.41017" fill="none" stroke-linecap="round"/><path d="M136.2028,183.53385h9.58002" fill="none" stroke-linecap="round"/><path d="M138.52523,183.19516v-6.39034" fill="none" stroke-linecap="round"/><path d="M191.93524,169.53613l11.87605,-133.59244c0,0 0.73983,-3.50553 7.54209,-2.93214c4.44297,0.37451 8.50754,7.07103 8.50754,7.07103l23.46333,129.48538z" data-paper-data="{&quot;index&quot;:null}" fill="#7d6d5a" stroke-linecap="round"/><path d="M211.40617,151.80127c-6.08808,1.36209 -13.89672,1.74266 -18.34518,1.78198c-4.44845,0.03932 -7.67516,-0.75443 -11.2613,-1.52027c-3.04008,-0.64924 -9.04066,-1.73522 -9.04066,-1.73522l0.01429,-9.46738c0,0 6.00275,-1.24098 9.04283,-1.89022c3.58613,-0.76586 6.81285,-1.55959 11.2613,-1.52027c4.44845,0.03932 12.25708,0.41987 18.34518,1.78198c6.03463,1.35014 17.7757,6.41846 17.7757,6.41846c0,0 -11.75753,4.80081 -17.79216,6.15095z" data-paper-data="{&quot;index&quot;:null}" fill="#7d6d5a" stroke-linecap="round"/><path d="M333.89308,178.92113l-0.0258,6.84794c0,0 -30.58522,1.87332 -45.78233,2.61179c-15.07082,0.73234 -44.63756,1.99436 -44.63756,1.99436l-51.56496,-0.11026l-19.21283,0.10557c0,0 -9.92293,-0.41857 -14.62646,-0.91856c-4.16987,-0.44326 -12.18704,-1.9317 -12.18704,-1.9317v-15.04053c0,0 8.01716,-1.48844 12.18704,-1.9317c4.70353,-0.49998 14.62646,-0.91856 14.62646,-0.91856l19.21283,0.10557l51.56496,-0.11026c0,0 29.56674,1.26202 44.63756,1.99436c15.19712,0.73847 45.78233,2.61179 45.78233,2.61179l0.0258,6.84794" data-paper-data="{&quot;index&quot;:null}" fill="#7d6d5a" stroke-linecap="round"/><path d="M340.3959,175.50503l-3.48364,4.06425l-2.78691,-2.78691" data-paper-data="{&quot;index&quot;:null}" fill="none" stroke-linecap="round"/><path d="M338.21172,178.40807l5.31947,0.11612" data-paper-data="{&quot;index&quot;:null}" fill="none" stroke-linecap="round"/><path d="M141.57341,176.32098l-2.17728,-2.41017" data-paper-data="{&quot;index&quot;:null}" fill="none" stroke-linecap="round"/><path d="M145.78281,176.46615h-9.58002" data-paper-data="{&quot;index&quot;:null}" fill="none" stroke-linecap="round"/><path d="M336.90548,180.39381l-0.0553,-1.05062" fill="none" stroke-linecap="round"/><path d="M231.09733,180c0,1.28264 -11.46163,2.32243 -15.09579,2.32243c-3.63416,0 -6.58022,-1.03979 -6.58022,-2.32243c0,-1.28264 2.94607,-2.32243 6.58022,-2.32243c3.63416,0 15.09579,1.03979 15.09579,2.32243z" fill="#7d6d5a" stroke-linecap="butt"/><path d="M303.71361,180.18624c0,-0.93672 0.03559,-1.69607 9.30804,-1.69607c9.27246,0 20.79086,0.75935 20.79086,1.69607c0,0.93672 -11.51841,1.69607 -20.79086,1.69607c-9.27246,0 -9.30804,-0.75935 -9.30804,-1.69607z" data-paper-data="{&quot;index&quot;:null}" fill="#7d6d5a" stroke-linecap="butt"/><g stroke-linecap="round"><path d="M174.91186,172.05512l-0.21155,3.08363l-2.10609,-0.03155l-0.05127,9.85157l2.38093,0.0846l0.19215,2.90153l-8.71139,-0.2509c0,0 -1.58947,-5.17554 -1.58947,-7.70349c0,-2.68776 1.58947,-7.75675 1.58947,-7.75675z" data-paper-data="{&quot;index&quot;:null}" fill="#b6c6cc"/><path d="M165.10041,180.01773l7.04182,-0.0172" data-paper-data="{&quot;index&quot;:null}" fill="none"/><path d="M174.82621,187.73162l-2.45021,-2.55943l-3.07297,2.17551c0,0 -0.66862,-4.75808 -0.67126,-7.18924c-0.00283,-2.60464 0.6548,-7.53814 0.6548,-7.53814l3.07297,2.31415l2.45021,-2.55943" fill="none"/><path d="M172.17185,184.85226l-0.01647,-9.59786" fill="none"/></g></g></g></svg>