# Procedural Medieval RTS block model
o shaft
v 0.02499999999999998 -0.35 0.020000000000000004
v 0.025000000000000022 0.35 0.020000000000000004
v -0.02499999999999998 0.35 0.020000000000000004
v -0.025000000000000022 -0.35 0.020000000000000004
v 0.02499999999999998 -0.35 0.08
v 0.025000000000000022 0.35 0.08
v -0.02499999999999998 0.35 0.08
v -0.025000000000000022 -0.35 0.08
f 1 2 3 4
f 5 8 7 6
f 1 5 6 2
f 2 6 7 3
f 3 7 8 4
f 4 8 5 1
o head
v 0.44 -0.09 0.024999999999999994
v 0.44 0.09 0.024999999999999994
v 0.32 0.09 0.024999999999999994
v 0.32 -0.09 0.024999999999999994
v 0.44 -0.09 0.095
v 0.44 0.09 0.095
v 0.32 0.09 0.095
v 0.32 -0.09 0.095
f 9 10 11 12
f 13 16 15 14
f 9 13 14 10
f 10 14 15 11
f 11 15 16 12
f 12 16 13 9
