# Procedural Medieval RTS block model
o courtyard
v -0.775 -0.775 0
v 0.775 -0.775 0
v 0.775 0.775 0
v -0.775 0.775 0
v -0.775 -0.775 0.6
v 0.775 -0.775 0.6
v 0.775 0.775 0.6
v -0.775 0.775 0.6
f 1 2 3 4
f 5 8 7 6
f 1 5 6 2
f 2 6 7 3
f 3 7 8 4
f 4 8 5 1
o tower
v -0.91 -0.91 0
v -0.43000000000000005 -0.91 0
v -0.43000000000000005 -0.43000000000000005 0
v -0.91 -0.43000000000000005 0
v -0.91 -0.91 1.24
v -0.43000000000000005 -0.91 1.24
v -0.43000000000000005 -0.43000000000000005 1.24
v -0.91 -0.43000000000000005 1.24
f 9 10 11 12
f 13 16 15 14
f 9 13 14 10
f 10 14 15 11
f 11 15 16 12
f 12 16 13 9
o tower
v 0.43000000000000005 -0.91 0
v 0.91 -0.91 0
v 0.91 -0.43000000000000005 0
v 0.43000000000000005 -0.43000000000000005 0
v 0.43000000000000005 -0.91 1.24
v 0.91 -0.91 1.24
v 0.91 -0.43000000000000005 1.24
v 0.43000000000000005 -0.43000000000000005 1.24
f 17 18 19 20
f 21 24 23 22
f 17 21 22 18
f 18 22 23 19
f 19 23 24 20
f 20 24 21 17
o tower
v -0.91 0.43000000000000005 0
v -0.43000000000000005 0.43000000000000005 0
v -0.43000000000000005 0.91 0
v -0.91 0.91 0
v -0.91 0.43000000000000005 1.24
v -0.43000000000000005 0.43000000000000005 1.24
v -0.43000000000000005 0.91 1.24
v -0.91 0.91 1.24
f 25 26 27 28
f 29 32 31 30
f 25 29 30 26
f 26 30 31 27
f 27 31 32 28
f 28 32 29 25
o tower
v 0.43000000000000005 0.43000000000000005 0
v 0.91 0.43000000000000005 0
v 0.91 0.91 0
v 0.43000000000000005 0.91 0
v 0.43000000000000005 0.43000000000000005 1.24
v 0.91 0.43000000000000005 1.24
v 0.91 0.91 1.24
v 0.43000000000000005 0.91 1.24
f 33 34 35 36
f 37 40 39 38
f 33 37 38 34
f 34 38 39 35
f 35 39 40 36
f 36 40 37 33
o keep
v -0.36 -0.7999999999999999 0.29000000000000004
v 0.36 -0.7999999999999999 0.29000000000000004
v 0.36 -0.36 0.29000000000000004
v -0.36 -0.36 0.29000000000000004
v -0.36 -0.7999999999999999 1.07
v 0.36 -0.7999999999999999 1.07
v 0.36 -0.36 1.07
v -0.36 -0.36 1.07
f 41 42 43 44
f 45 48 47 46
f 41 45 46 42
f 42 46 47 43
f 43 47 48 44
f 44 48 45 41
o gate
v -0.17 0.7 0.14
v 0.17 0.7 0.14
v 0.17 0.8200000000000001 0.14
v -0.17 0.8200000000000001 0.14
v -0.17 0.7 0.54
v 0.17 0.7 0.54
v 0.17 0.8200000000000001 0.54
v -0.17 0.8200000000000001 0.54
f 49 50 51 52
f 53 56 55 54
f 49 53 54 50
f 50 54 55 51
f 51 55 56 52
f 52 56 53 49
