# Procedural Medieval RTS block model
o left_rail
v 0.003553390593273753 -0.48083261120685233 0.12
v 0.1308326112068523 -0.3535533905932738 0.12
v -0.7035533905932737 0.48083261120685233 0.12
v -0.8308326112068523 0.3535533905932738 0.12
v 0.003553390593273753 -0.48083261120685233 0.32
v 0.1308326112068523 -0.3535533905932738 0.32
v -0.7035533905932737 0.48083261120685233 0.32
v -0.8308326112068523 0.3535533905932738 0.32
f 1 2 3 4
f 5 8 7 6
f 1 5 6 2
f 2 6 7 3
f 3 7 8 4
f 4 8 5 1
o right_rail
v 0.7035533905932737 -0.48083261120685233 0.12
v 0.8308326112068523 -0.3535533905932738 0.12
v -0.003553390593273753 0.48083261120685233 0.12
v -0.1308326112068523 0.3535533905932738 0.12
v 0.7035533905932737 -0.48083261120685233 0.32
v 0.8308326112068523 -0.3535533905932738 0.32
v -0.003553390593273753 0.48083261120685233 0.32
v -0.1308326112068523 0.3535533905932738 0.32
f 9 10 11 12
f 13 16 15 14
f 9 13 14 10
f 10 14 15 11
f 11 15 16 12
f 12 16 13 9
o crossbar
v -0.2545584412271571 -0.7476955262170046 0.19
v 0.36769552621700474 -0.12544155877284296 0.19
v 0.2545584412271571 -0.012304473782995318 0.19
v -0.36769552621700474 -0.634558441227157 0.19
v -0.2545584412271571 -0.7476955262170046 0.41
v 0.36769552621700474 -0.12544155877284296 0.41
v 0.2545584412271571 -0.012304473782995318 0.41
v -0.36769552621700474 -0.634558441227157 0.41
f 17 18 19 20
f 21 24 23 22
f 17 21 22 18
f 18 22 23 19
f 19 23 24 20
f 20 24 21 17
o crossbar
v -0.2545584412271571 0.012304473782995318 0.19
v 0.36769552621700474 0.634558441227157 0.19
v 0.2545584412271571 0.7476955262170046 0.19
v -0.36769552621700474 0.12544155877284296 0.19
v -0.2545584412271571 0.012304473782995318 0.41
v 0.36769552621700474 0.634558441227157 0.41
v 0.2545584412271571 0.7476955262170046 0.41
v -0.36769552621700474 0.12544155877284296 0.41
f 25 26 27 28
f 29 32 31 30
f 25 29 30 26
f 26 30 31 27
f 27 31 32 28
f 28 32 29 25
o throw_arm
v 0.3217335854398791 -0.44072853480599583 0.525
v 0.42072853480599576 -0.3417335854398792 0.525
v -0.3217335854398791 0.4007285348059958 0.525
v -0.42072853480599576 0.30173358543987916 0.525
v 0.3217335854398791 -0.44072853480599583 0.6749999999999999
v 0.42072853480599576 -0.3417335854398792 0.6749999999999999
v -0.3217335854398791 0.4007285348059958 0.6749999999999999
v -0.42072853480599576 0.30173358543987916 0.6749999999999999
f 33 34 35 36
f 37 40 39 38
f 33 37 38 34
f 34 38 39 35
f 35 39 40 36
f 36 40 37 33
o cup
v -0.028284271247461898 -0.7887005768508881 0.63
v 0.26870057685088805 -0.49171572875253816 0.63
v 0.028284271247461898 -0.25129942314911197 0.63
v -0.26870057685088805 -0.5482842712474618 0.63
v -0.028284271247461898 -0.7887005768508881 0.8099999999999999
v 0.26870057685088805 -0.49171572875253816 0.8099999999999999
v 0.028284271247461898 -0.25129942314911197 0.8099999999999999
v -0.26870057685088805 -0.5482842712474618 0.8099999999999999
f 41 42 43 44
f 45 48 47 46
f 41 45 46 42
f 42 46 47 43
f 43 47 48 44
f 44 48 45 41
