# Procedural Medieval RTS block model
o horse_body
v 0.20506096654409872 -0.5934671708797582 0.10999999999999999
v 0.6434671708797581 -0.1550609665440988 0.10999999999999999
v -0.20506096654409872 0.6934671708797583 0.10999999999999999
v -0.6434671708797581 0.2550609665440988 0.10999999999999999
v 0.20506096654409872 -0.5934671708797582 0.59
v 0.6434671708797581 -0.1550609665440988 0.59
v -0.20506096654409872 0.6934671708797583 0.59
v -0.6434671708797581 0.2550609665440988 0.59
f 1 2 3 4
f 5 8 7 6
f 1 5 6 2
f 2 6 7 3
f 3 7 8 4
f 4 8 5 1
o horse_head
v -2.7755575615628914e-17 -1.0194112549695429 0.21000000000000002
v 0.33941125496954283 -0.68 0.21000000000000002
v 2.7755575615628914e-17 -0.3405887450304572 0.21000000000000002
v -0.33941125496954283 -0.68 0.21000000000000002
v -2.7755575615628914e-17 -1.0194112549695429 0.69
v 0.33941125496954283 -0.68 0.69
v 2.7755575615628914e-17 -0.3405887450304572 0.69
v -0.33941125496954283 -0.68 0.69
f 9 10 11 12
f 13 16 15 14
f 9 13 14 10
f 10 14 15 11
f 11 15 16 12
f 12 16 13 9
o horse_leg
v -0.21636038969321075 0.3290811690796322 -0.020000000000000018
v -0.0890811690796322 0.45636038969321074 -0.020000000000000018
v -0.3436396103067893 0.7109188309203678 -0.020000000000000018
v -0.47091883092036785 0.5836396103067893 -0.020000000000000018
v -0.21636038969321075 0.3290811690796322 0.26
v -0.0890811690796322 0.45636038969321074 0.26
v -0.3436396103067893 0.7109188309203678 0.26
v -0.47091883092036785 0.5836396103067893 0.26
f 17 18 19 20
f 21 24 23 22
f 17 21 22 18
f 18 22 23 19
f 19 23 24 20
f 20 24 21 17
o horse_leg
v 0.3436396103067893 0.3290811690796322 -0.020000000000000018
v 0.47091883092036785 0.45636038969321074 -0.020000000000000018
v 0.21636038969321075 0.7109188309203678 -0.020000000000000018
v 0.0890811690796322 0.5836396103067893 -0.020000000000000018
v 0.3436396103067893 0.3290811690796322 0.26
v 0.47091883092036785 0.45636038969321074 0.26
v 0.21636038969321075 0.7109188309203678 0.26
v 0.0890811690796322 0.5836396103067893 0.26
f 25 26 27 28
f 29 32 31 30
f 25 29 30 26
f 26 30 31 27
f 27 31 32 28
f 28 32 29 25
o horse_leg
v -0.21636038969321075 -0.47091883092036785 -0.020000000000000018
v -0.0890811690796322 -0.3436396103067893 -0.020000000000000018
v -0.3436396103067893 -0.0890811690796322 -0.020000000000000018
v -0.47091883092036785 -0.21636038969321075 -0.020000000000000018
v -0.21636038969321075 -0.47091883092036785 0.26
v -0.0890811690796322 -0.3436396103067893 0.26
v -0.3436396103067893 -0.0890811690796322 0.26
v -0.47091883092036785 -0.21636038969321075 0.26
f 33 34 35 36
f 37 40 39 38
f 33 37 38 34
f 34 38 39 35
f 35 39 40 36
f 36 40 37 33
o horse_leg
v 0.3436396103067893 -0.47091883092036785 -0.020000000000000018
v 0.47091883092036785 -0.3436396103067893 -0.020000000000000018
v 0.21636038969321075 -0.0890811690796322 -0.020000000000000018
v 0.0890811690796322 -0.21636038969321075 -0.020000000000000018
v 0.3436396103067893 -0.47091883092036785 0.26
v 0.47091883092036785 -0.3436396103067893 0.26
v 0.21636038969321075 -0.0890811690796322 0.26
v 0.0890811690796322 -0.21636038969321075 0.26
f 41 42 43 44
f 45 48 47 46
f 41 45 46 42
f 42 46 47 43
f 43 47 48 44
f 44 48 45 41
o rider_torso
v -2.7755575615628914e-17 -0.24698484809834992 0.56
v 0.2969848480983499 0.049999999999999975 0.56
v 2.7755575615628914e-17 0.3469848480983499 0.56
v -0.2969848480983499 0.05000000000000003 0.56
v -2.7755575615628914e-17 -0.24698484809834992 0.94
v 0.2969848480983499 0.049999999999999975 0.94
v 2.7755575615628914e-17 0.3469848480983499 0.94
v -0.2969848480983499 0.05000000000000003 0.94
f 49 50 51 52
f 53 56 55 54
f 49 53 54 50
f 50 54 55 51
f 51 55 56 52
f 52 56 53 49
o rider_head
v -1.3877787807814457e-17 -0.4904163056034262 0.85
v 0.2404163056034262 -0.25 0.85
v 1.3877787807814457e-17 -0.009583694396573805 0.85
v -0.2404163056034262 -0.25 0.85
v -1.3877787807814457e-17 -0.4904163056034262 1.19
v 0.2404163056034262 -0.25 1.19
v 1.3877787807814457e-17 -0.009583694396573805 1.19
v -0.2404163056034262 -0.25 1.19
f 57 58 59 60
f 61 64 63 62
f 57 61 62 58
f 58 62 63 59
f 59 63 64 60
f 60 64 61 57
o lance
v 0.8565863991822649 -0.6572970773009196 0.855
v 0.9272970773009195 -0.5865863991822649 0.855
v 0.04341360081773521 0.2972970773009196 0.855
v -0.027297077300919514 0.22658639918226486 0.855
v 0.8565863991822649 -0.6572970773009196 0.9450000000000001
v 0.9272970773009195 -0.5865863991822649 0.9450000000000001
v 0.04341360081773521 0.2972970773009196 0.9450000000000001
v -0.027297077300919514 0.22658639918226486 0.9450000000000001
f 65 66 67 68
f 69 72 71 70
f 65 69 70 66
f 66 70 71 67
f 67 71 72 68
f 68 72 69 65
