# Procedural Medieval RTS block model
o walls
v -0.675 -0.55 0
v 0.675 -0.55 0
v 0.675 0.55 0
v -0.675 0.55 0
v -0.675 -0.55 0.64
v 0.675 -0.55 0.64
v 0.675 0.55 0.64
v -0.675 0.55 0.64
f 1 2 3 4
f 5 8 7 6
f 1 5 6 2
f 2 6 7 3
f 3 7 8 4
f 4 8 5 1
o door
v -0.17 0.39999999999999997 0.30999999999999994
v 0.17 0.39999999999999997 0.30999999999999994
v 0.17 0.5599999999999999 0.30999999999999994
v -0.17 0.5599999999999999 0.30999999999999994
v -0.17 0.39999999999999997 0.65
v 0.17 0.39999999999999997 0.65
v 0.17 0.5599999999999999 0.65
v -0.17 0.5599999999999999 0.65
f 9 10 11 12
f 13 16 15 14
f 9 13 14 10
f 10 14 15 11
f 11 15 16 12
f 12 16 13 9
o stall1
v -0.51 0.265 0.31999999999999995
v -0.17 0.265 0.31999999999999995
v -0.17 0.515 0.31999999999999995
v -0.51 0.515 0.31999999999999995
v -0.51 0.265 0.62
v -0.17 0.265 0.62
v -0.17 0.515 0.62
v -0.51 0.515 0.62
f 17 18 19 20
f 21 24 23 22
f 17 21 22 18
f 18 22 23 19
f 19 23 24 20
f 20 24 21 17
o stall2
v 0.17 0.265 0.31999999999999995
v 0.51 0.265 0.31999999999999995
v 0.51 0.515 0.31999999999999995
v 0.17 0.515 0.31999999999999995
v 0.17 0.265 0.62
v 0.51 0.265 0.62
v 0.51 0.515 0.62
v 0.17 0.515 0.62
f 25 26 27 28
f 29 32 31 30
f 25 29 30 26
f 26 30 31 27
f 27 31 32 28
f 28 32 29 25
