# Procedural Medieval RTS block model
o left_boot
v -0.1846446609406726 0.07493903345590125 0
v -0.014939033455901224 0.2446446609406726 0
v -0.2553553390593274 0.4850609665440988 0
v -0.42506096654409875 0.31535533905932744 0
v -0.1846446609406726 0.07493903345590125 0.24
v -0.014939033455901224 0.2446446609406726 0.24
v -0.2553553390593274 0.4850609665440988 0.24
v -0.42506096654409875 0.31535533905932744 0.24
f 1 2 3 4
f 5 8 7 6
f 1 5 6 2
f 2 6 7 3
f 3 7 8 4
f 4 8 5 1
o right_boot
v 0.2553553390593274 0.07493903345590125 0
v 0.42506096654409875 0.2446446609406726 0
v 0.1846446609406726 0.4850609665440988 0
v 0.014939033455901224 0.31535533905932744 0
v 0.2553553390593274 0.07493903345590125 0.24
v 0.42506096654409875 0.2446446609406726 0.24
v 0.1846446609406726 0.4850609665440988 0.24
v 0.014939033455901224 0.31535533905932744 0.24
f 9 10 11 12
f 13 16 15 14
f 9 13 14 10
f 10 14 15 11
f 11 15 16 12
f 12 16 13 9
o left_leg
v -0.15403805922287445 -0.1927386360737625 0.13000000000000003
v 0.022738636073762475 -0.01596194077712562 0.13000000000000003
v -0.24596194077712558 0.25273863607376246 0.13000000000000003
v -0.4227386360737625 0.07596194077712562 0.13000000000000003
v -0.15403805922287445 -0.1927386360737625 0.43000000000000005
v 0.022738636073762475 -0.01596194077712562 0.43000000000000005
v -0.24596194077712558 0.25273863607376246 0.43000000000000005
v -0.4227386360737625 0.07596194077712562 0.43000000000000005
f 17 18 19 20
f 21 24 23 22
f 17 21 22 18
f 18 22 23 19
f 19 23 24 20
f 20 24 21 17
o right_leg
v 0.24596194077712558 -0.1927386360737625 0.13000000000000003
v 0.4227386360737625 -0.01596194077712562 0.13000000000000003
v 0.15403805922287445 0.25273863607376246 0.13000000000000003
v -0.022738636073762475 0.07596194077712562 0.13000000000000003
v 0.24596194077712558 -0.1927386360737625 0.43000000000000005
v 0.4227386360737625 -0.01596194077712562 0.43000000000000005
v 0.15403805922287445 0.25273863607376246 0.43000000000000005
v -0.022738636073762475 0.07596194077712562 0.43000000000000005
f 25 26 27 28
f 29 32 31 30
f 25 29 30 26
f 26 30 31 27
f 27 31 32 28
f 28 32 29 25
o torso
v -0.028284271247461912 -0.6301219330881975 0.31000000000000005
v 0.41012193308819755 -0.19171572875253814 0.31000000000000005
v 0.028284271247461912 0.19012193308819755 0.31000000000000005
v -0.41012193308819755 -0.24828427124746186 0.31000000000000005
v -0.028284271247461912 -0.6301219330881975 0.73
v 0.41012193308819755 -0.19171572875253814 0.73
v 0.028284271247461912 0.19012193308819755 0.73
v -0.41012193308819755 -0.24828427124746186 0.73
f 33 34 35 36
f 37 40 39 38
f 33 37 38 34
f 34 38 39 35
f 35 39 40 36
f 36 40 37 33
o left_arm
v -0.3062563132923542 -0.44516504294495535 0.36
v -0.16483495705504464 -0.30374368670764584 0.36
v -0.5537436867076458 0.08516504294495536 0.36
v -0.6951650429449554 -0.05625631329235414 0.36
v -0.3062563132923542 -0.44516504294495535 0.6
v -0.16483495705504464 -0.30374368670764584 0.6
v -0.5537436867076458 0.08516504294495536 0.6
v -0.6951650429449554 -0.05625631329235414 0.6
f 41 42 43 44
f 45 48 47 46
f 41 45 46 42
f 42 46 47 43
f 43 47 48 44
f 44 48 45 41
o right_arm
v 0.5537436867076458 -0.44516504294495535 0.36
v 0.6951650429449554 -0.30374368670764584 0.36
v 0.3062563132923542 0.08516504294495536 0.36
v 0.16483495705504464 -0.05625631329235414 0.36
v 0.5537436867076458 -0.44516504294495535 0.6
v 0.6951650429449554 -0.30374368670764584 0.6
v 0.3062563132923542 0.08516504294495536 0.6
v 0.16483495705504464 -0.05625631329235414 0.6
f 49 50 51 52
f 53 56 55 54
f 49 53 54 50
f 50 54 55 51
f 51 55 56 52
f 52 56 53 49
o head
v -2.7755575615628914e-17 -0.9069848480983499 0.5900000000000001
v 0.2969848480983499 -0.61 0.5900000000000001
v 2.7755575615628914e-17 -0.3130151519016501 0.5900000000000001
v -0.2969848480983499 -0.61 0.5900000000000001
v -2.7755575615628914e-17 -0.9069848480983499 0.97
v 0.2969848480983499 -0.61 0.97
v 2.7755575615628914e-17 -0.3130151519016501 0.97
v -0.2969848480983499 -0.61 0.97
f 57 58 59 60
f 61 64 63 62
f 57 61 62 58
f 58 62 63 59
f 59 63 64 60
f 60 64 61 57
o sword_blade
v 0.8616295090390225 -0.46648232278140833 0.63
v 0.9464823227814083 -0.3816295090390226 0.63
v 0.33837049096097743 0.22648232278140834 0.63
v 0.2535176772185917 0.1416295090390226 0.63
v 0.8616295090390225 -0.46648232278140833 0.7300000000000001
v 0.9464823227814083 -0.3816295090390226 0.7300000000000001
v 0.33837049096097743 0.22648232278140834 0.7300000000000001
v 0.2535176772185917 0.1416295090390226 0.7300000000000001
f 65 66 67 68
f 69 72 71 70
f 65 69 70 66
f 66 70 71 67
f 67 71 72 68
f 68 72 69 65
o sword_guard
v 0.5222182540694797 0.151507575950825 0.6399999999999999
v 0.748492424049175 0.37778174593052016 0.6399999999999999
v 0.6777817459305202 0.448492424049175 0.6399999999999999
v 0.45150757595082497 0.2222182540694798 0.6399999999999999
v 0.5222182540694797 0.151507575950825 0.76
v 0.748492424049175 0.37778174593052016 0.76
v 0.6777817459305202 0.448492424049175 0.76
v 0.45150757595082497 0.2222182540694798 0.76
f 73 74 75 76
f 77 80 79 78
f 73 77 78 74
f 74 78 79 75
f 75 79 80 76
f 76 80 77 73
