# Procedural Medieval RTS block model
o tower
v -0.36 -0.36 0
v 0.36 -0.36 0
v 0.36 0.36 0
v -0.36 0.36 0
v -0.36 -0.36 1.24
v 0.36 -0.36 1.24
v 0.36 0.36 1.24
v -0.36 0.36 1.24
f 1 2 3 4
f 5 8 7 6
f 1 5 6 2
f 2 6 7 3
f 3 7 8 4
f 4 8 5 1
o door
v -0.11 0.255 0.45999999999999996
v 0.11 0.255 0.45999999999999996
v 0.11 0.365 0.45999999999999996
v -0.11 0.365 0.45999999999999996
v -0.11 0.255 0.76
v 0.11 0.255 0.76
v 0.11 0.365 0.76
v -0.11 0.365 0.76
f 9 10 11 12
f 13 16 15 14
f 9 13 14 10
f 10 14 15 11
f 11 15 16 12
f 12 16 13 9
