# Procedural Medieval RTS block model
o blade
v -0.07 0.02999999999999997 0.05
v 0.07 0.02999999999999997 0.05
v 0.07 0.81 0.05
v -0.07 0.81 0.05
v -0.07 0.02999999999999997 0.15000000000000002
v 0.07 0.02999999999999997 0.15000000000000002
v 0.07 0.81 0.15000000000000002
v -0.07 0.81 0.15000000000000002
f 1 2 3 4
f 5 8 7 6
f 1 5 6 2
f 2 6 7 3
f 3 7 8 4
f 4 8 5 1
o blade
v 0.02999999999999997 0.07 0.05
v 0.02999999999999997 -0.07 0.05
v 0.81 -0.06999999999999995 0.05
v 0.81 0.07000000000000006 0.05
v 0.02999999999999997 0.07 0.15000000000000002
v 0.02999999999999997 -0.07 0.15000000000000002
v 0.81 -0.06999999999999995 0.15000000000000002
v 0.81 0.07000000000000006 0.15000000000000002
f 9 10 11 12
f 13 16 15 14
f 9 13 14 10
f 10 14 15 11
f 11 15 16 12
f 12 16 13 9
o blade
v 0.07000000000000002 -0.02999999999999997 0.05
v -0.06999999999999999 -0.02999999999999997 0.05
v -0.06999999999999991 -0.81 0.05
v 0.0700000000000001 -0.81 0.05
v 0.07000000000000002 -0.02999999999999997 0.15000000000000002
v -0.06999999999999999 -0.02999999999999997 0.15000000000000002
v -0.06999999999999991 -0.81 0.15000000000000002
v 0.0700000000000001 -0.81 0.15000000000000002
f 17 18 19 20
f 21 24 23 22
f 17 21 22 18
f 18 22 23 19
f 19 23 24 20
f 20 24 21 17
o blade
v -0.02999999999999997 -0.07000000000000002 0.05
v -0.02999999999999997 0.06999999999999999 0.05
v -0.81 0.06999999999999985 0.05
v -0.81 -0.07000000000000016 0.05
v -0.02999999999999997 -0.07000000000000002 0.15000000000000002
v -0.02999999999999997 0.06999999999999999 0.15000000000000002
v -0.81 0.06999999999999985 0.15000000000000002
v -0.81 -0.07000000000000016 0.15000000000000002
f 25 26 27 28
f 29 32 31 30
f 25 29 30 26
f 26 30 31 27
f 27 31 32 28
f 28 32 29 25
