# Procedural Medieval RTS block model
o walls
v -0.675 -0.55 0
v 0.675 -0.55 0
v 0.675 0.55 0
v -0.675 0.55 0
v -0.675 -0.55 0.64
v 0.675 -0.55 0.64
v 0.675 0.55 0.64
v -0.675 0.55 0.64
f 1 2 3 4
f 5 8 7 6
f 1 5 6 2
f 2 6 7 3
f 3 7 8 4
f 4 8 5 1
o door
v -0.17 0.39999999999999997 0.30999999999999994
v 0.17 0.39999999999999997 0.30999999999999994
v 0.17 0.5599999999999999 0.30999999999999994
v -0.17 0.5599999999999999 0.30999999999999994
v -0.17 0.39999999999999997 0.65
v 0.17 0.39999999999999997 0.65
v 0.17 0.5599999999999999 0.65
v -0.17 0.5599999999999999 0.65
f 9 10 11 12
f 13 16 15 14
f 9 13 14 10
f 10 14 15 11
f 11 15 16 12
f 12 16 13 9
