<svg xmlns="http://www.w3.org/2000/svg" viewBox="0 0 512 512">
  <defs><linearGradient id="g" gradientUnits="userSpaceOnUse" x1="0" y1="0" x2="512" y2="512"><stop offset="0" stop-color="#3DD17A"/><stop offset="1" stop-color="#16A2A0"/></linearGradient></defs>
  <rect width="512" height="512" rx="0" fill="url(#g)"/>
  <g fill="none" stroke="#fff" stroke-width="30" stroke-linecap="round" stroke-linejoin="round">
    <path d="M256 170c-20-40-62-58-104-48-62 16-84 84-72 156 16 92 70 160 122 160 20 0 32-10 52-10s32 10 52 10c52 0 106-68 122-160 4-26 4-50-2-72"/>
    <path d="M256 170c0-40 22-72 60-84"/>
  </g>
  <circle cx="372" cy="178" r="46" fill="url(#g)"/>
  <path d="M338 146a46 46 0 0068 64" fill="none" stroke="#fff" stroke-width="30" stroke-linecap="round"/>
</svg>
